<?xml version="1.0" encoding="UTF-8" standalone="no"?>
<svg
   xmlns:dc="http://purl.org/dc/elements/1.1/"
   xmlns:cc="http://creativecommons.org/ns#"
   xmlns:rdf="http://www.w3.org/1999/02/22-rdf-syntax-ns#"
   xmlns:svg="http://www.w3.org/2000/svg"
   xmlns="http://www.w3.org/2000/svg"
   xmlns:sodipodi="http://sodipodi.sourceforge.net/DTD/sodipodi-0.dtd"
   xmlns:inkscape="http://www.inkscape.org/namespaces/inkscape"
   width="8.2677164in"
   height="11.692913in"
   viewBox="0 0 210 297"
   version="1.1"
   id="svg8"
   inkscape:version="1.0.2-2 (e86c870879, 2021-01-15)"
   sodipodi:docname="VOLUMEOLR.svg">
  <defs
     id="defs2">
    <rect
       x="176.74167"
       y="75.14167"
       width="24.606251"
       height="33.866669"
       id="rect80" />
  </defs>
  <sodipodi:namedview
     id="base"
     pagecolor="#ffffff"
     bordercolor="#666666"
     borderopacity="1.0"
     inkscape:pageopacity="0.0"
     inkscape:pageshadow="2"
     inkscape:zoom="1.4626932"
     inkscape:cx="363.54973"
     inkscape:cy="403.20829"
     inkscape:document-units="mm"
     inkscape:current-layer="layer1"
     inkscape:document-rotation="0"
     showgrid="false"
     inkscape:window-width="3840"
     inkscape:window-height="2131"
     inkscape:window-x="-9"
     inkscape:window-y="-9"
     inkscape:window-maximized="1"
     units="in">
    <inkscape:grid
       type="xygrid"
       id="grid68" />
  </sodipodi:namedview>
  <metadata
     id="metadata5">
    <rdf:RDF>
      <cc:Work
         rdf:about="">
        <dc:format>image/svg+xml</dc:format>
        <dc:type
           rdf:resource="http://purl.org/dc/dcmitype/StillImage" />
        <dc:title />
      </cc:Work>
    </rdf:RDF>
  </metadata>
  <g
     inkscape:label="Layer 1"
     inkscape:groupmode="layer"
     id="layer1">
    <text
       xml:space="preserve"
       style="font-style:normal;font-weight:normal;font-size:10.5833px;line-height:1.25;font-family:sans-serif;fill:#ffffff;fill-opacity:1;stroke:none;stroke-width:0.264583"
       x="157.95625"
       y="87.57708"
       id="text52"><tspan
         sodipodi:role="line"
         x="157.95625"
         y="87.57708"
         style="font-style:normal;font-variant:normal;font-weight:normal;font-stretch:normal;font-size:4.93889px;font-family:'MS 33558';-inkscape-font-specification:'MS 33558, ';letter-spacing:-13.2292px;fill:#ffffff;stroke-width:0.264583"
         id="tspan65" /></text>
    <text
       xml:space="preserve"
       id="text78"
       style="font-style:normal;font-weight:normal;font-size:10.5833px;line-height:1.25;font-family:sans-serif;white-space:pre;shape-inside:url(#rect80);fill:#000000;fill-opacity:1;stroke:none;" />
    <path
       style="fill:none;stroke:#000000;stroke-width:0.264583px;stroke-linecap:butt;stroke-linejoin:miter;stroke-opacity:1"
       d="m -105.83333,124.35417 v 0"
       id="path936"
       sodipodi:nodetypes="cc" />
    <circle
       style="fill:#ff0000;stroke-width:0.113411"
       id="path8"
       cx="163.7718"
       cy="153.35513"
       r="3.175" />
    <text
       xml:space="preserve"
       style="font-size:4.23333px;line-height:1.25;font-family:'MS 33558';-inkscape-font-specification:'MS 33558, ';fill:#00ff00;stroke-width:0.264583"
       x="72.459038"
       y="95.71682"
       id="text106"><tspan
         sodipodi:role="line"
         id="tspan104"
         x="72.459038"
         y="95.71682"
         style="font-style:normal;font-variant:normal;font-weight:normal;font-stretch:normal;font-size:7.05556px;font-family:'MS 33558';-inkscape-font-specification:'MS 33558, Normal';font-variant-ligatures:normal;font-variant-caps:normal;font-variant-numeric:normal;font-variant-east-asian:normal;fill:#00ff00;stroke-width:0.264583">VOLUME</tspan></text>
    <text
       xml:space="preserve"
       style="font-size:4.23333px;line-height:1.25;font-family:'MS 33558';-inkscape-font-specification:'MS 33558, ';fill:#00ff00;stroke-width:0.264583"
       x="147.50269"
       y="104.2113"
       id="text110"><tspan
         sodipodi:role="line"
         id="tspan108"
         x="147.50269"
         y="104.2113"
         style="font-size:3.52778px;fill:#00ff00;stroke-width:0.264583">TACAN</tspan></text>
    <text
       xml:space="preserve"
       style="font-style:normal;font-variant:normal;font-weight:normal;font-stretch:normal;font-size:3.52777px;line-height:1.25;font-family:sans-serif;-inkscape-font-specification:'sans-serif, Normal';font-variant-ligatures:normal;font-variant-caps:normal;font-variant-numeric:normal;font-variant-east-asian:normal;fill:#00ff00;stroke-width:0.264583"
       x="55.598507"
       y="111.7589"
       id="text122-8"><tspan
         id="tspan120-3"
         x="55.598507"
         y="111.7589"
         style="font-style:normal;font-variant:normal;font-weight:normal;font-stretch:normal;font-size:3.52777px;font-family:sans-serif;-inkscape-font-specification:'sans-serif, Normal';font-variant-ligatures:normal;font-variant-caps:normal;font-variant-numeric:normal;font-variant-east-asian:normal;fill:#00ff00;stroke-width:0.264583"
         sodipodi:role="line">ALR67</tspan></text>
    <rect
       style="fill:#00ff00;stroke-width:0.390777"
       id="rect188"
       width="1.27"
       height="67.334419"
       x="133.52829"
       y="85.591003" />
    <circle
       style="fill:#ff0000;stroke-width:0.113411"
       id="path8-04"
       cx="56.589622"
       cy="153.09932"
       r="3.175" />
    <circle
       style="fill:#ff0000;stroke-width:0.113411"
       id="path8-1"
       cx="57.637829"
       cy="87.400734"
       r="3.175" />
    <circle
       style="fill:#ff0000;stroke-width:0.113411"
       id="path8-1-5"
       cx="162.61923"
       cy="87.14492"
       r="3.175" />
    <circle
       style="fill:#ff0000;stroke-width:0.1786"
       id="path8-04-7"
       cx="61.388676"
       cy="120.727"
       r="5" />
    <path
       id="rect2769"
       style="fill:none;fill-opacity:1;stroke:#000000;stroke-width:0.986782"
       d="M 191.85352 308.9043 L 191.85352 357.67578 L 191.74219 357.67578 A 31.857001 26.330274 0 0 1 191.69336 359.64844 A 31.857001 26.330274 0 0 1 159.56641 384.47852 L 159.56641 384.49609 L 137.74414 384.35742 L 132.14258 384.36523 L 132.14648 384.32227 L 127.61719 384.29102 L 127.61719 520.68555 L 132.14648 520.6543 L 132.14258 520.61133 L 137.74219 520.61914 L 159.56641 520.48047 L 159.56641 520.5 A 31.857001 26.330274 0 0 1 191.69336 545.32812 A 31.857001 26.330274 0 0 1 191.74219 547.30273 L 191.85352 547.30273 L 191.85352 596.07227 L 638.67383 596.07227 L 638.67383 547.30273 L 638.78516 547.30273 A 31.857042 26.330112 0 0 1 638.83398 545.33008 A 31.857042 26.330112 0 0 1 670.96094 520.5 L 670.96094 520.48047 L 692.78516 520.61914 L 698.38477 520.61133 L 698.38086 520.6543 L 702.91016 520.68555 L 702.91016 384.29102 L 698.38086 384.32227 L 698.38477 384.36523 L 692.78516 384.35742 L 670.96094 384.49609 L 670.96094 384.47656 A 31.857044 26.330112 0 0 1 638.83398 359.64648 A 31.857044 26.330112 0 0 1 638.78516 357.67383 L 638.67383 357.67383 L 638.67383 308.9043 L 191.85352 308.9043 z "
       transform="scale(0.26458333)" />
    <path
       id="path103-1-8"
       style="fill:#ff00eb;fill-opacity:1;stroke:none;stroke-width:0.306514;stroke-opacity:1"
       d="m 54.016364,42.639257 v 12.903757 h 0.02975 a 8.4288428,6.9665089 0 0 0 0.01268,0.522006 8.4288428,6.9665089 0 0 0 8.500202,6.569484 v 0.005 l 5.77423,-0.0366 1.481681,0.002 -7.24e-4,-0.0114 1.202177,-0.008 V 49.681543 h -0.0042 v -7.042286 z" />
    <path
       id="path103-1-8-6"
       style="fill:#ff00eb;fill-opacity:1;stroke:none;stroke-width:0.306514;stroke-opacity:1"
       d="m 42.882295,42.460619 v 12.903836 h -0.02975 a 8.4288316,6.9665517 0 0 1 -0.01268,0.52201 8.4288316,6.9665517 0 0 1 -8.500182,6.569509 v 0.005 l -5.774264,-0.0366 -1.48166,0.002 7.36e-4,-0.0116 -1.202195,-0.008 V 49.502948 h 0.0043 v -7.042329 z" />
    <path
       id="path103-1-8-6-4"
       style="fill:#ff00eb;fill-opacity:1;stroke:none;stroke-width:0.306514;stroke-opacity:1"
       d="M 43.583471,35.195266 V 22.291431 h -0.02975 a 8.4288316,6.9665517 0 0 0 -0.01269,-0.52201 8.4288316,6.9665517 0 0 0 -8.500182,-6.569509 v -0.005 l -5.774264,0.0366 -1.48166,-0.002 7.36e-4,0.0116 -1.202195,0.008 v 12.903826 h 0.0043 v 7.042328 z" />
    <path
       id="path103-1-8-67"
       style="fill:#ff00eb;fill-opacity:1;stroke:none;stroke-width:0.306514;stroke-opacity:1"
       d="M 52.792115,36.023533 V 23.119776 h 0.02975 a 8.4288423,6.9665089 0 0 1 0.01269,-0.522005 8.4288423,6.9665089 0 0 1 8.500202,-6.569482 v -0.005 l 5.77423,0.0366 1.48168,-0.002 -7.24e-4,0.0114 1.202177,0.008 v 12.903958 h -0.0043 v 7.042286 z" />
    <circle
       style="fill:#ff0000;stroke-width:0.1786"
       id="path8-04-7-5"
       cx="87.778"
       cy="120.777"
       r="5" />
    <circle
       style="fill:#ff0000;stroke-width:0.1786"
       id="path8-04-7-2"
       cx="114.259"
       cy="120.72665"
       r="5" />
    <text
       xml:space="preserve"
       style="font-style:normal;font-variant:normal;font-weight:normal;font-stretch:normal;font-size:3.52777px;line-height:1.25;font-family:sans-serif;-inkscape-font-specification:'sans-serif, Normal';font-variant-ligatures:normal;font-variant-caps:normal;font-variant-numeric:normal;font-variant-east-asian:normal;fill:#00ff00;stroke-width:0.264583"
       x="84.385864"
       y="111.53997"
       id="text122-8-1"><tspan
         id="tspan120-3-9"
         x="84.385864"
         y="111.53997"
         style="font-style:normal;font-variant:normal;font-weight:normal;font-stretch:normal;font-size:3.52777px;font-family:sans-serif;-inkscape-font-specification:'sans-serif, Normal';font-variant-ligatures:normal;font-variant-caps:normal;font-variant-numeric:normal;font-variant-east-asian:normal;fill:#00ff00;stroke-width:0.264583"
         sodipodi:role="line">SW</tspan></text>
    <text
       xml:space="preserve"
       style="font-style:normal;font-variant:normal;font-weight:normal;font-stretch:normal;font-size:3.52777px;line-height:1.25;font-family:sans-serif;-inkscape-font-specification:'sans-serif, Normal';font-variant-ligatures:normal;font-variant-caps:normal;font-variant-numeric:normal;font-variant-east-asian:normal;fill:#00ff00;stroke-width:0.264583"
       x="107.9123"
       y="111.77824"
       id="text122-8-1-6"><tspan
         id="tspan120-3-9-9"
         x="107.9123"
         y="111.77824"
         style="font-style:normal;font-variant:normal;font-weight:normal;font-stretch:normal;font-size:3.52777px;font-family:sans-serif;-inkscape-font-specification:'sans-serif, Normal';font-variant-ligatures:normal;font-variant-caps:normal;font-variant-numeric:normal;font-variant-east-asian:normal;fill:#00ff00;stroke-width:0.264583"
         sodipodi:role="line">VHF</tspan></text>
    <text
       xml:space="preserve"
       style="font-size:4.23333px;line-height:1.25;font-family:'MS 33558';-inkscape-font-specification:'MS 33558, ';fill:#00ff00;stroke-width:0.264583"
       x="150.9054"
       y="109.40668"
       id="text110-6"><tspan
         sodipodi:role="line"
         id="tspan108-7"
         x="150.9054"
         y="109.40668"
         style="font-size:3.52778px;fill:#00ff00;stroke-width:0.264583">CMD</tspan><tspan
         sodipodi:role="line"
         x="150.9054"
         y="114.69834"
         style="font-size:3.52778px;fill:#00ff00;stroke-width:0.264583"
         id="tspan7532" /></text>
    <rect
       style="fill:#fc0000;fill-opacity:1;stroke:none;stroke-width:0.264583"
       id="rect7534"
       width="17.267441"
       height="16.372093"
       x="146.06976"
       y="111.97638" />
  </g>
</svg>
