<?xml version="1.0" encoding="UTF-8" standalone="no"?>
<svg
   xmlns:dc="http://purl.org/dc/elements/1.1/"
   xmlns:cc="http://creativecommons.org/ns#"
   xmlns:rdf="http://www.w3.org/1999/02/22-rdf-syntax-ns#"
   xmlns:svg="http://www.w3.org/2000/svg"
   xmlns="http://www.w3.org/2000/svg"
   xmlns:sodipodi="http://sodipodi.sourceforge.net/DTD/sodipodi-0.dtd"
   xmlns:inkscape="http://www.inkscape.org/namespaces/inkscape"
   width="8.2677164in"
   height="11.692913in"
   viewBox="0 0 210 297"
   version="1.1"
   id="svg8"
   inkscape:version="1.0.2-2 (e86c870879, 2021-01-15)"
   sodipodi:docname="VOLUMEOLR.svg">
  <defs
     id="defs2">
    <rect
       x="176.74167"
       y="75.14167"
       width="24.606251"
       height="33.866669"
       id="rect80" />
  </defs>
  <sodipodi:namedview
     id="base"
     pagecolor="#ffffff"
     bordercolor="#666666"
     borderopacity="1.0"
     inkscape:pageopacity="0.0"
     inkscape:pageshadow="2"
     inkscape:zoom="4.1371211"
     inkscape:cx="226.45278"
     inkscape:cy="142.11198"
     inkscape:document-units="mm"
     inkscape:current-layer="layer1"
     inkscape:document-rotation="0"
     showgrid="false"
     inkscape:window-width="3840"
     inkscape:window-height="2131"
     inkscape:window-x="-9"
     inkscape:window-y="-9"
     inkscape:window-maximized="1"
     units="in">
    <inkscape:grid
       type="xygrid"
       id="grid68" />
  </sodipodi:namedview>
  <metadata
     id="metadata5">
    <rdf:RDF>
      <cc:Work
         rdf:about="">
        <dc:format>image/svg+xml</dc:format>
        <dc:type
           rdf:resource="http://purl.org/dc/dcmitype/StillImage" />
        <dc:title />
      </cc:Work>
    </rdf:RDF>
  </metadata>
  <g
     inkscape:label="Layer 1"
     inkscape:groupmode="layer"
     id="layer1">
    <path
       id="rect2769"
       style="fill:#000000;fill-opacity:1;stroke:#000000;stroke-width:0.260967"
       d="M 17.281435,-0.00341654 V 12.900724 h -0.02943 a 8.42114,6.9665625 0 0 1 -0.01291,0.521933 8.42114,6.9665625 0 0 1 -8.4924993,6.569637 v 0.005 l -5.76854,-0.0367 -1.480727,0.002 0.001,-0.0114 -1.19728096,-0.008 v 36.08777 l 1.19728096,-0.008 -0.001,-0.0114 1.480211,0.002 5.769056,-0.0367 v 0.005 a 8.42114,6.9665625 0 0 1 8.4924993,6.56912 8.42114,6.9665625 0 0 1 0.01291,0.52245 h 0.02943 v 12.90363 H 135.39476 v -12.90363 h 0.0294 a 8.4211508,6.9665196 0 0 1 0.0129,-0.52193 8.4211508,6.9665196 0 0 1 8.4925,-6.56964 v -0.005 l 5.76905,0.0367 1.48021,-0.002 -0.001,0.0114 1.19728,0.008 v -36.08777 l -1.19728,0.008 0.001,0.0114 -1.48021,-0.002 -5.76905,0.0367 v -0.005 a 8.4211513,6.9665196 0 0 1 -8.4925,-6.569635 8.4211513,6.9665196 0 0 1 -0.0129,-0.521931 h -0.0294 V -0.00341654 Z" />
    <text
       xml:space="preserve"
       style="font-style:normal;font-weight:normal;font-size:10.5833px;line-height:1.25;font-family:sans-serif;fill:#ffffff;fill-opacity:1;stroke:none;stroke-width:0.264583"
       x="157.95625"
       y="87.57708"
       id="text52"><tspan
         sodipodi:role="line"
         x="157.95625"
         y="87.57708"
         style="font-style:normal;font-variant:normal;font-weight:normal;font-stretch:normal;font-size:4.93889px;font-family:'MS 33558';-inkscape-font-specification:'MS 33558, ';letter-spacing:-13.2292px;fill:#ffffff;stroke-width:0.264583"
         id="tspan65" /></text>
    <text
       xml:space="preserve"
       id="text78"
       style="font-style:normal;font-weight:normal;font-size:10.5833px;line-height:1.25;font-family:sans-serif;white-space:pre;shape-inside:url(#rect80);fill:#000000;fill-opacity:1;stroke:none;" />
    <path
       style="fill:none;stroke:#000000;stroke-width:0.264583px;stroke-linecap:butt;stroke-linejoin:miter;stroke-opacity:1"
       d="m -105.83333,124.35417 v 0"
       id="path936"
       sodipodi:nodetypes="cc" />
    <text
       xml:space="preserve"
       style="font-size:4.23333px;line-height:1.25;font-family:'MS 33558';-inkscape-font-specification:'MS 33558, ';fill:#ffffff;fill-opacity:1;stroke-width:0.264583"
       x="38.994797"
       y="13.982535"
       id="text106"><tspan
         sodipodi:role="line"
         id="tspan104"
         x="38.994797"
         y="13.982535"
         style="font-style:normal;font-variant:normal;font-weight:normal;font-stretch:normal;font-size:7.05556px;font-family:'MS 33558';-inkscape-font-specification:'MS 33558, Normal';font-variant-ligatures:normal;font-variant-caps:normal;font-variant-numeric:normal;font-variant-east-asian:normal;fill:#ffffff;fill-opacity:1;stroke-width:0.264583">VOLUME</tspan></text>
    <text
       xml:space="preserve"
       style="font-size:4.23333px;line-height:1.25;font-family:'MS 33558';-inkscape-font-specification:'MS 33558, ';fill:#ffffff;fill-opacity:1;stroke-width:0.264583"
       x="112.45097"
       y="22.477016"
       id="text110"><tspan
         sodipodi:role="line"
         id="tspan108"
         x="112.45097"
         y="22.477016"
         style="font-size:3.52778px;fill:#ffffff;fill-opacity:1;stroke-width:0.264583">TACAN</tspan></text>
    <text
       xml:space="preserve"
       style="font-style:normal;font-variant:normal;font-weight:normal;font-stretch:normal;font-size:3.52777px;line-height:1.25;font-family:sans-serif;-inkscape-font-specification:'sans-serif, Normal';font-variant-ligatures:normal;font-variant-caps:normal;font-variant-numeric:normal;font-variant-east-asian:normal;fill:#ffffff;fill-opacity:1;stroke-width:0.264583"
       x="22.134266"
       y="26.849613"
       id="text122-8"><tspan
         id="tspan120-3"
         x="22.134266"
         y="26.849613"
         style="font-style:normal;font-variant:normal;font-weight:normal;font-stretch:normal;font-size:3.52777px;font-family:sans-serif;-inkscape-font-specification:'sans-serif, Normal';font-variant-ligatures:normal;font-variant-caps:normal;font-variant-numeric:normal;font-variant-east-asian:normal;fill:#ffffff;fill-opacity:1;stroke-width:0.264583"
         sodipodi:role="line">ALR67</tspan></text>
    <rect
       style="fill:#ffffff;fill-opacity:1;stroke-width:0.390777"
       id="rect188"
       width="1.27"
       height="67.334419"
       x="100.06405"
       y="3.8567181" />
    <circle
       style="fill:#ff0000;stroke-width:0.1786"
       id="path8-04-7"
       cx="27.924435"
       cy="38.463543"
       r="5" />
    <path
       id="path103-1-8"
       style="fill:#ff00eb;fill-opacity:1;stroke:none;stroke-width:0.306514;stroke-opacity:1"
       d="m 345.78836,16.591416 v 12.903757 h 0.0297 a 8.4288428,6.9665089 0 0 0 0.0127,0.522006 8.4288428,6.9665089 0 0 0 8.5002,6.569484 v 0.005 l 5.77423,-0.0366 1.48168,0.002 -7.2e-4,-0.0114 1.20218,-0.008 V 23.633702 h -0.004 v -7.042286 z" />
    <path
       id="path103-1-8-6"
       style="fill:#ff00eb;fill-opacity:1;stroke:none;stroke-width:0.306514;stroke-opacity:1"
       d="m 334.65429,16.412778 v 12.903836 h -0.0297 a 8.4288316,6.9665517 0 0 1 -0.0127,0.52201 8.4288316,6.9665517 0 0 1 -8.50018,6.569509 v 0.005 l -5.77426,-0.0366 -1.48166,0.002 7.3e-4,-0.0116 -1.20219,-0.008 V 23.455107 h 0.004 v -7.042329 z" />
    <path
       id="path103-1-8-6-4"
       style="fill:#ff00eb;fill-opacity:1;stroke:none;stroke-width:0.306514;stroke-opacity:1"
       d="m 335.35547,9.1474249 v -12.903835 h -0.0298 a 8.4288316,6.9665517 0 0 0 -0.0127,-0.52201 8.4288316,6.9665517 0 0 0 -8.50018,-6.5695089 v -0.005 l -5.77427,0.0366 -1.48166,-0.002 7.4e-4,0.0116 -1.2022,0.008 V 2.1050969 h 0.004 v 7.042328 z" />
    <path
       id="path103-1-8-67"
       style="fill:#ff00eb;fill-opacity:1;stroke:none;stroke-width:0.306514;stroke-opacity:1"
       d="m 344.56411,9.9756919 v -12.903757 h 0.0297 a 8.4288423,6.9665089 0 0 1 0.0127,-0.522005 8.4288423,6.9665089 0 0 1 8.5002,-6.5694819 v -0.005 l 5.77423,0.0366 1.48168,-0.002 -7.2e-4,0.0114 1.20218,0.008 v 12.903958 h -0.004 v 7.042286 z" />
    <circle
       style="fill:#ff0000;stroke-width:0.1786"
       id="path8-04-7-5"
       cx="54.313759"
       cy="38.462711"
       r="5" />
    <circle
       style="fill:#ff0000;stroke-width:0.1786"
       id="path8-04-7-2"
       cx="80.794762"
       cy="38.463192"
       r="5" />
    <text
       xml:space="preserve"
       style="font-style:normal;font-variant:normal;font-weight:normal;font-stretch:normal;font-size:3.52777px;line-height:1.25;font-family:sans-serif;-inkscape-font-specification:'sans-serif, Normal';font-variant-ligatures:normal;font-variant-caps:normal;font-variant-numeric:normal;font-variant-east-asian:normal;fill:#ffffff;fill-opacity:1;stroke-width:0.264583"
       x="51.45079"
       y="26.849468"
       id="text122-8-1"><tspan
         id="tspan120-3-9"
         x="51.45079"
         y="26.849468"
         style="font-style:normal;font-variant:normal;font-weight:normal;font-stretch:normal;font-size:3.52777px;font-family:sans-serif;-inkscape-font-specification:'sans-serif, Normal';font-variant-ligatures:normal;font-variant-caps:normal;font-variant-numeric:normal;font-variant-east-asian:normal;fill:#ffffff;fill-opacity:1;stroke-width:0.264583"
         sodipodi:role="line">SW</tspan></text>
    <text
       xml:space="preserve"
       style="font-style:normal;font-variant:normal;font-weight:normal;font-stretch:normal;font-size:3.52777px;line-height:1.25;font-family:sans-serif;-inkscape-font-specification:'sans-serif, Normal';font-variant-ligatures:normal;font-variant-caps:normal;font-variant-numeric:normal;font-variant-east-asian:normal;fill:#ffffff;fill-opacity:1;stroke-width:0.264583"
       x="77.623047"
       y="26.802975"
       id="text122-8-1-6"><tspan
         id="tspan120-3-9-9"
         x="77.623047"
         y="26.802975"
         style="font-style:normal;font-variant:normal;font-weight:normal;font-stretch:normal;font-size:3.52777px;font-family:sans-serif;-inkscape-font-specification:'sans-serif, Normal';font-variant-ligatures:normal;font-variant-caps:normal;font-variant-numeric:normal;font-variant-east-asian:normal;fill:#ffffff;fill-opacity:1;stroke-width:0.264583"
         sodipodi:role="line">VHF</tspan></text>
    <text
       xml:space="preserve"
       style="font-size:4.23333px;line-height:1.25;font-family:'MS 33558';-inkscape-font-specification:'MS 33558, ';fill:#ffffff;fill-opacity:1;stroke-width:0.264583"
       x="115.32452"
       y="27.67239"
       id="text110-6"><tspan
         sodipodi:role="line"
         id="tspan108-7"
         x="115.32452"
         y="27.67239"
         style="font-size:3.52778px;fill:#ffffff;fill-opacity:1;stroke-width:0.264583">CMD</tspan><tspan
         sodipodi:role="line"
         x="115.32452"
         y="32.96405"
         style="font-size:3.52778px;fill:#ffffff;fill-opacity:1;stroke-width:0.264583"
         id="tspan7532" /></text>
    <rect
       style="fill:#fc0000;fill-opacity:1;stroke:none;stroke-width:0.314721"
       id="rect7534"
       width="20"
       height="20"
       x="109.43056"
       y="30.771259" />
  </g>
</svg>
