<?xml version="1.0" encoding="UTF-8" standalone="no"?>
<svg
   xmlns:dc="http://purl.org/dc/elements/1.1/"
   xmlns:cc="http://creativecommons.org/ns#"
   xmlns:rdf="http://www.w3.org/1999/02/22-rdf-syntax-ns#"
   xmlns:svg="http://www.w3.org/2000/svg"
   xmlns="http://www.w3.org/2000/svg"
   xmlns:sodipodi="http://sodipodi.sourceforge.net/DTD/sodipodi-0.dtd"
   xmlns:inkscape="http://www.inkscape.org/namespaces/inkscape"
   width="210mm"
   height="297mm"
   viewBox="0 0 210 297"
   version="1.1"
   id="svg427"
   inkscape:version="1.0.2-2 (e86c870879, 2021-01-15)"
   sodipodi:docname="PANEL1 ENGINE CRANK SUPPORT OLR.svg">
  <defs
     id="defs421" />
  <sodipodi:namedview
     id="base"
     pagecolor="#ffffff"
     bordercolor="#666666"
     borderopacity="1.0"
     inkscape:pageopacity="0.0"
     inkscape:pageshadow="2"
     inkscape:zoom="0.7"
     inkscape:cx="619.66125"
     inkscape:cy="805.64367"
     inkscape:document-units="mm"
     inkscape:current-layer="layer1"
     inkscape:document-rotation="0"
     showgrid="true"
     inkscape:window-width="1816"
     inkscape:window-height="1208"
     inkscape:window-x="1482"
     inkscape:window-y="1176"
     inkscape:window-maximized="0">
    <inkscape:grid
       type="xygrid"
       id="grid492" />
  </sodipodi:namedview>
  <metadata
     id="metadata424">
    <rdf:RDF>
      <cc:Work
         rdf:about="">
        <dc:format>image/svg+xml</dc:format>
        <dc:type
           rdf:resource="http://purl.org/dc/dcmitype/StillImage" />
        <dc:title></dc:title>
      </cc:Work>
    </rdf:RDF>
  </metadata>
  <g
     inkscape:label="Calque 1"
     inkscape:groupmode="layer"
     id="layer1">
    <rect
       style="fill:none;stroke:#000002;stroke-width:0.249651;stroke-miterlimit:4;stroke-dasharray:none;stroke-opacity:1"
       id="rect140-1-0"
       width="152.15034"
       height="215.65034"
       x="32.02602"
       y="33.537926" />
    <circle
       style="fill:#ff0000;stroke:none;stroke-width:0.15875"
       id="path146-2-1-6"
       cx="174.44145"
       cy="46.038101"
       r="3.175" />
    <circle
       style="fill:#ff0000;stroke:none;stroke-width:0.15875"
       id="path146-0-2-5"
       cx="42.041431"
       cy="46.038101"
       r="3.175" />
    <circle
       style="fill:#ff0000;stroke:none;stroke-width:0.15875"
       id="path146-0-9-2-1"
       cx="42.041431"
       cy="236.93811"
       r="3.175" />
    <circle
       style="fill:#ff0000;stroke:none;stroke-width:0.15875"
       id="path146-0-1-3-1"
       cx="174.44145"
       cy="236.93811"
       r="3.175" />
    <path
       style="fill:#ff0000;stroke:none;stroke-width:0.0615931;stroke-miterlimit:4;stroke-dasharray:none;stroke-opacity:1"
       id="path958-4-5-4"
       sodipodi:type="arc"
       sodipodi:cx="42.041431"
       sodipodi:cy="141.51877"
       sodipodi:rx="3.175"
       sodipodi:ry="3.175"
       sodipodi:start="0"
       sodipodi:end="6.1693026"
       sodipodi:open="true"
       sodipodi:arc-type="arc"
       d="m 45.216431,141.51877 a 3.175,3.175 0 0 1 -3.084617,3.17371 3.175,3.175 0 0 1 -3.260237,-2.99302 3.175,3.175 0 0 1 2.899001,-3.34412 3.175,3.175 0 0 1 3.425287,2.80263" />
    <path
       style="fill:#ff0000;stroke:none;stroke-width:0.0612955;stroke-miterlimit:4;stroke-dasharray:none;stroke-opacity:1"
       id="path958-4-0-2-0"
       sodipodi:type="arc"
       sodipodi:cx="-174.44145"
       sodipodi:cy="141.48816"
       sodipodi:rx="3.175"
       sodipodi:ry="3.1443951"
       sodipodi:start="0"
       sodipodi:end="6.1693026"
       sodipodi:open="true"
       sodipodi:arc-type="arc"
       transform="scale(-1,1)"
       d="m -171.26645,141.48816 a 3.175,3.1443951 0 0 1 -3.08462,3.14312 3.175,3.1443951 0 0 1 -3.26024,-2.96417 3.175,3.1443951 0 0 1 2.899,-3.31188 3.175,3.1443951 0 0 1 3.42529,2.77561" />
    <path
       style="fill:#ff0000;stroke:none;stroke-width:0.253999;stroke-opacity:1"
       id="path103-5"
       sodipodi:type="arc"
       sodipodi:cx="77.286339"
       sodipodi:cy="68.705513"
       sodipodi:rx="6.3499999"
       sodipodi:ry="6.3499999"
       sodipodi:start="0"
       sodipodi:end="6.1693026"
       sodipodi:open="true"
       sodipodi:arc-type="arc"
       d="m 83.636339,68.705513 a 6.3499999,6.3499999 0 0 1 -6.169236,6.347426 6.3499999,6.3499999 0 0 1 -6.520473,-5.986044 6.3499999,6.3499999 0 0 1 5.798002,-6.688234 6.3499999,6.3499999 0 0 1 6.850574,5.605259" />
    <path
       style="fill:#ff0000;stroke:none;stroke-width:0.253999;stroke-opacity:1"
       id="path103-1-8"
       sodipodi:type="arc"
       sodipodi:cx="119.08997"
       sodipodi:cy="68.705513"
       sodipodi:rx="6.3499999"
       sodipodi:ry="6.3499999"
       sodipodi:start="0"
       sodipodi:end="6.1693026"
       sodipodi:open="true"
       sodipodi:arc-type="arc"
       d="m 125.43997,68.705513 a 6.3499999,6.3499999 0 0 1 -6.16923,6.347426 6.3499999,6.3499999 0 0 1 -6.52047,-5.986044 6.3499999,6.3499999 0 0 1 5.798,-6.688234 6.3499999,6.3499999 0 0 1 6.85057,5.605259" />
    <path
       style="fill:#ff0000;stroke:none;stroke-width:0.253999;stroke-opacity:1"
       id="path103-8-5"
       sodipodi:type="arc"
       sodipodi:cx="98.452698"
       sodipodi:cy="112.62635"
       sodipodi:rx="6.3499999"
       sodipodi:ry="6.3499999"
       sodipodi:start="0"
       sodipodi:end="6.1693026"
       sodipodi:open="true"
       sodipodi:arc-type="arc"
       d="m 104.8027,112.62635 a 6.3499999,6.3499999 0 0 1 -6.169238,6.34743 6.3499999,6.3499999 0 0 1 -6.520473,-5.98605 6.3499999,6.3499999 0 0 1 5.798002,-6.68823 6.3499999,6.3499999 0 0 1 6.850569,5.60526" />
    <path
       style="fill:#ff0000;stroke:none;stroke-width:0.253999;stroke-opacity:1"
       id="path103-8-4-22"
       sodipodi:type="arc"
       sodipodi:cx="70.146179"
       sodipodi:cy="163.4263"
       sodipodi:rx="6.3499999"
       sodipodi:ry="6.3499999"
       sodipodi:start="0"
       sodipodi:end="6.1693026"
       sodipodi:open="true"
       sodipodi:arc-type="arc"
       d="m 76.496179,163.4263 a 6.3499999,6.3499999 0 0 1 -6.169235,6.34743 6.3499999,6.3499999 0 0 1 -6.520473,-5.98605 6.3499999,6.3499999 0 0 1 5.798001,-6.68823 6.3499999,6.3499999 0 0 1 6.850574,5.60526" />
    <path
       style="fill:#ff0000;stroke:none;stroke-width:0.253999;stroke-opacity:1"
       id="path103-8-4-5-1"
       sodipodi:type="arc"
       sodipodi:cx="133.79773"
       sodipodi:cy="160.25127"
       sodipodi:rx="6.3499999"
       sodipodi:ry="6.3499999"
       sodipodi:start="0"
       sodipodi:end="6.1693026"
       sodipodi:open="true"
       sodipodi:arc-type="arc"
       d="m 140.14773,160.25127 a 6.3499999,6.3499999 0 0 1 -6.16924,6.34742 6.3499999,6.3499999 0 0 1 -6.52047,-5.98604 6.3499999,6.3499999 0 0 1 5.798,-6.68824 6.3499999,6.3499999 0 0 1 6.85058,5.60526" />
    <rect
       style="fill:#ff0000;stroke:none;stroke-width:0.370416;stroke-opacity:1"
       id="rect298-0"
       width="44.450001"
       height="22.225"
       x="113.52432"
       y="-219.19263"
       transform="scale(1,-1)" />
    <path
       style="fill:#ff0000;stroke:none;stroke-width:0.253999;stroke-opacity:1"
       id="path103-8-4-2-2"
       sodipodi:type="arc"
       sodipodi:cx="70.297699"
       sodipodi:cy="204.70129"
       sodipodi:rx="6.3499999"
       sodipodi:ry="6.3499999"
       sodipodi:start="0"
       sodipodi:end="6.1693026"
       sodipodi:open="true"
       sodipodi:arc-type="arc"
       d="m 76.647699,204.70129 a 6.3499999,6.3499999 0 0 1 -6.169236,6.34743 6.3499999,6.3499999 0 0 1 -6.520472,-5.98604 6.3499999,6.3499999 0 0 1 5.798001,-6.68824 6.3499999,6.3499999 0 0 1 6.850574,5.60526" />
    <path
       style="fill:#ff0000;stroke:none;stroke-width:0.0615931;stroke-miterlimit:4;stroke-dasharray:none;stroke-opacity:1"
       id="path958-9"
       sodipodi:type="arc"
       sodipodi:cx="152.63264"
       sodipodi:cy="46.026115"
       sodipodi:rx="3.175"
       sodipodi:ry="3.175"
       sodipodi:start="0"
       sodipodi:end="6.1693026"
       sodipodi:open="true"
       sodipodi:arc-type="arc"
       d="m 155.80764,46.026115 a 3.175,3.175 0 0 1 -3.08461,3.173714 3.175,3.175 0 0 1 -3.26024,-2.993022 3.175,3.175 0 0 1 2.899,-3.344117 3.175,3.175 0 0 1 3.42529,2.802629" />
    <path
       style="fill:#ff0000;stroke:none;stroke-width:0.0615931;stroke-miterlimit:4;stroke-dasharray:none;stroke-opacity:1"
       id="path958-8-5"
       sodipodi:type="arc"
       sodipodi:cx="59.499302"
       sodipodi:cy="110.58448"
       sodipodi:rx="3.175"
       sodipodi:ry="3.175"
       sodipodi:start="0"
       sodipodi:end="6.1693026"
       sodipodi:open="true"
       sodipodi:arc-type="arc"
       d="m 62.674302,110.58448 a 3.175,3.175 0 0 1 -3.084618,3.17371 3.175,3.175 0 0 1 -3.260236,-2.99302 3.175,3.175 0 0 1 2.899,-3.34412 3.175,3.175 0 0 1 3.425287,2.80263" />
    <path
       style="fill:#ff0000;stroke:none;stroke-width:0.061593;stroke-miterlimit:4;stroke-dasharray:none;stroke-opacity:1"
       id="path958-80-6"
       sodipodi:type="arc"
       sodipodi:cx="150.51601"
       sodipodi:cy="136.51364"
       sodipodi:rx="3.175"
       sodipodi:ry="3.175"
       sodipodi:start="0"
       sodipodi:end="6.1693026"
       sodipodi:open="true"
       sodipodi:arc-type="arc"
       d="m 153.69101,136.51364 a 3.175,3.175 0 0 1 -3.08462,3.17371 3.175,3.175 0 0 1 -3.26024,-2.99302 3.175,3.175 0 0 1 2.899,-3.34411 3.175,3.175 0 0 1 3.42529,2.80262" />
    <path
       style="fill:#ff0000;stroke:none;stroke-width:0.0615931;stroke-miterlimit:4;stroke-dasharray:none;stroke-opacity:1"
       id="path958-80-1-6"
       sodipodi:type="arc"
       sodipodi:cx="56.853497"
       sodipodi:cy="176.73027"
       sodipodi:rx="3.175"
       sodipodi:ry="3.175"
       sodipodi:start="0"
       sodipodi:end="6.1693026"
       sodipodi:open="true"
       sodipodi:arc-type="arc"
       d="m 60.028497,176.73027 a 3.175,3.175 0 0 1 -3.084618,3.17371 3.175,3.175 0 0 1 -3.260237,-2.99302 3.175,3.175 0 0 1 2.899001,-3.34412 3.175,3.175 0 0 1 3.425287,2.80263" />
    <path
       style="fill:#ff0000;stroke:none;stroke-width:0.0615931;stroke-miterlimit:4;stroke-dasharray:none;stroke-opacity:1"
       id="path958-80-7-8"
       sodipodi:type="arc"
       sodipodi:cx="154.22012"
       sodipodi:cy="234.9386"
       sodipodi:rx="3.175"
       sodipodi:ry="3.175"
       sodipodi:start="0"
       sodipodi:end="6.1693026"
       sodipodi:open="true"
       sodipodi:arc-type="arc"
       d="m 157.39512,234.9386 a 3.175,3.175 0 0 1 -3.08461,3.17371 3.175,3.175 0 0 1 -3.26024,-2.99302 3.175,3.175 0 0 1 2.899,-3.34412 3.175,3.175 0 0 1 3.42529,2.80263" />
  </g>
</svg>
