<?xml version="1.0" encoding="UTF-8" standalone="no"?>
<svg
   xmlns:dc="http://purl.org/dc/elements/1.1/"
   xmlns:cc="http://creativecommons.org/ns#"
   xmlns:rdf="http://www.w3.org/1999/02/22-rdf-syntax-ns#"
   xmlns:svg="http://www.w3.org/2000/svg"
   xmlns="http://www.w3.org/2000/svg"
   xmlns:sodipodi="http://sodipodi.sourceforge.net/DTD/sodipodi-0.dtd"
   xmlns:inkscape="http://www.inkscape.org/namespaces/inkscape"
   width="210mm"
   height="297mm"
   viewBox="0 0 210 297"
   version="1.1"
   id="svg8"
   inkscape:version="1.0.2-2 (e86c870879, 2021-01-15)"
   sodipodi:docname="Panel5 (Volume-TACAN)OLR.svg">
  <defs
     id="defs2">
    <marker
       style="overflow:visible;"
       id="Arrow1Lend"
       refX="0.0"
       refY="0.0"
       orient="auto"
       inkscape:stockid="Arrow1Lend"
       inkscape:isstock="true">
      <path
         transform="scale(0.8) rotate(180) translate(12.5,0)"
         style="fill-rule:evenodd;stroke:#000000;stroke-width:1pt;stroke-opacity:1;fill:#ffffff;fill-opacity:1"
         d="M 0.0,0.0 L 5.0,-5.0 L -12.5,0.0 L 5.0,5.0 L 0.0,0.0 z "
         id="path1790" />
    </marker>
  </defs>
  <sodipodi:namedview
     id="base"
     pagecolor="#ffffff"
     bordercolor="#666666"
     borderopacity="1.0"
     inkscape:pageopacity="0.0"
     inkscape:pageshadow="2"
     inkscape:zoom="1.4142136"
     inkscape:cx="315.48803"
     inkscape:cy="328.99082"
     inkscape:document-units="mm"
     inkscape:current-layer="layer1"
     inkscape:document-rotation="0"
     showgrid="false"
     inkscape:window-width="1920"
     inkscape:window-height="1058"
     inkscape:window-x="-6"
     inkscape:window-y="-6"
     inkscape:window-maximized="1">
    <inkscape:grid
       type="xygrid"
       id="grid833" />
  </sodipodi:namedview>
  <metadata
     id="metadata5">
    <rdf:RDF>
      <cc:Work
         rdf:about="">
        <dc:format>image/svg+xml</dc:format>
        <dc:type
           rdf:resource="http://purl.org/dc/dcmitype/StillImage" />
        <dc:title />
      </cc:Work>
    </rdf:RDF>
  </metadata>
  <g
     inkscape:label="Layer 1"
     inkscape:groupmode="layer"
     id="layer1">
    <rect
       style="fill:#ff0000;stroke-width:0.216089"
       id="rect1697-5-0-1"
       width="20.5"
       height="20.5"
       x="129.73019"
       y="72.551086" />
    <text
       xml:space="preserve"
       style="font-size:4.93889px;line-height:1.25;font-family:'MS 33558';-inkscape-font-specification:'MS 33558, ';fill:#00ff00;stroke-width:0.264583"
       x="71.299957"
       y="52.703754"
       id="text1707"><tspan
         sodipodi:role="line"
         id="tspan1705"
         x="71.299957"
         y="52.703754"
         style="font-size:4.93889px;fill:#00ff00;stroke-width:0.264583">VOLUME</tspan></text>
    <text
       xml:space="preserve"
       style="font-size:3.52778px;line-height:1.25;font-family:'MS 33558';-inkscape-font-specification:'MS 33558, ';fill:#00ff00;stroke-width:0.264583"
       x="47.377216"
       y="67.583755"
       id="text1711"><tspan
         sodipodi:role="line"
         id="tspan1709"
         x="47.377216"
         y="67.583755"
         style="font-size:3.52778px;fill:#00ff00;stroke-width:0.264583">ALR-67</tspan></text>
    <text
       xml:space="preserve"
       style="font-size:3.52778px;line-height:1.25;font-family:'MS 33558';-inkscape-font-specification:'MS 33558, ';fill:#00ff00;stroke-width:0.264583"
       x="79.593742"
       y="67.584061"
       id="text1711-4"><tspan
         sodipodi:role="line"
         id="tspan1709-6"
         x="79.593742"
         y="67.584061"
         style="font-size:3.52778px;fill:#00ff00;stroke-width:0.264583">SW</tspan></text>
    <text
       xml:space="preserve"
       style="font-size:3.52778px;line-height:1.25;font-family:'MS 33558';-inkscape-font-specification:'MS 33558, ';fill:#00ff00;stroke-width:0.264583"
       x="133.05554"
       y="61.699589"
       id="text1711-5"><tspan
         sodipodi:role="line"
         id="tspan1709-2"
         x="133.05554"
         y="61.699589"
         style="font-size:3.52778px;fill:#00ff00;stroke-width:0.264583">TACAN</tspan></text>
    <text
       xml:space="preserve"
       style="font-size:3.52778px;line-height:1.25;font-family:'MS 33558';-inkscape-font-specification:'MS 33558, ';fill:#00ff00;stroke-width:0.264583"
       x="136.00966"
       y="67.582443"
       id="text1711-9"><tspan
         sodipodi:role="line"
         id="tspan1709-8"
         x="136.00966"
         y="67.582443"
         style="font-size:3.52778px;fill:#00ff00;stroke-width:0.264583">CMD</tspan></text>
    <path
       id="text1711-8"
       style="font-size:3.52778px;line-height:1.25;font-family:'MS 33558';-inkscape-font-specification:'MS 33558, ';word-spacing:-0.0661458px;fill:#00ff00;stroke-width:0.264583"
       d="m 103.50332,64.053374 c -0.0917,0.005 -0.15916,0.0661 -0.20308,0.18241 l -0.58394,2.17042 -0.58085,-2.14974 c -0.0586,-0.15274 -0.15715,-0.2109 -0.2961,-0.17416 -0.1378,0.0367 -0.19597,0.13666 -0.17415,0.29973 l 0.81649,3.02979 c 0.0494,0.11484 0.12821,0.1726 0.23616,0.1726 0.10795,-0.001 0.18506,-0.061 0.23099,-0.17932 l 0.8196,-3.04374 c 0.0333,-0.15503 -0.0218,-0.25322 -0.16538,-0.29456 -0.0359,-0.0106 -0.0692,-0.0152 -0.0997,-0.0134 z m 2.61486,0.003 c -0.006,0 -0.0333,0.006 -0.0827,0.0171 -0.0482,0.0103 -0.0896,0.0465 -0.12402,0.10852 l -1.633,3.03857 c -0.0391,0.0999 -0.0343,0.18564 0.0139,0.25684 0.0494,0.0712 0.11524,0.10697 0.19792,0.10697 0.0586,0 0.10548,-0.0138 0.14108,-0.0413 0.0356,-0.0287 0.0606,-0.0563 0.0744,-0.0827 l 1.62575,-3.04581 c 0.0482,-0.0965 0.0457,-0.17995 -0.008,-0.25115 -0.054,-0.0712 -0.12248,-0.10696 -0.20517,-0.10696 z m 0.99477,0 c -0.082,0.008 -0.14366,0.0579 -0.185,0.14832 -0.0126,0.0275 -0.0191,0.0586 -0.0191,0.093 v 2.1239 0.0341 c 0.0195,0.35829 0.14182,0.63137 0.3669,0.81855 0.22623,0.18719 0.4756,0.28618 0.74776,0.29766 0.27216,0.0103 0.5279,-0.0676 0.76791,-0.23409 0.24001,-0.16767 0.3843,-0.42737 0.43253,-0.77877 0.001,-0.0115 0.003,-0.0459 0.007,-0.10335 v -0.0341 -2.1239 c 0,-0.14469 -0.0731,-0.22393 -0.22014,-0.23771 -0.14699,-0.0138 -0.23403,0.0499 -0.26045,0.1912 -0.002,0.0104 -0.003,0.0258 -0.003,0.0465 v 2.1239 c -0.009,0.12058 -0.0394,0.23083 -0.0899,0.33073 -0.0494,0.0999 -0.1273,0.18127 -0.23409,0.24443 -0.23771,0.1424 -0.46469,0.14797 -0.68058,0.017 -0.21475,-0.13091 -0.33056,-0.32809 -0.34778,-0.59221 v -2.1239 c 0,-0.13206 -0.0641,-0.2109 -0.19276,-0.23616 -0.0319,-0.006 -0.0615,-0.008 -0.0889,-0.005 z m 5.6131,0 c -0.1424,0.0115 -0.22428,0.0928 -0.24495,0.24443 v 3.03858 c 0.023,0.16306 0.10657,0.24362 0.25011,0.24133 0.1447,-0.002 0.22261,-0.0829 0.2341,-0.24133 v -1.37253 h 1.11104 c 0.16307,-0.0241 0.24363,-0.10812 0.24133,-0.25166 -0.002,-0.14355 -0.0829,-0.22106 -0.24133,-0.23255 h -1.11104 v -0.94206 h 1.42472 c 0.16192,-0.0103 0.24288,-0.0905 0.24288,-0.23978 0,-0.15043 -0.0802,-0.2318 -0.23978,-0.24443 z m -2.8236,0.002 c -0.14355,-0.003 -0.22704,0.0775 -0.25115,0.24288 v 3.04581 c 0.0241,0.16306 0.1076,0.24311 0.25115,0.24081 0.14354,-0.002 0.22198,-0.0823 0.23461,-0.24081 v -1.41803 h 1.38647 v 1.418 c 0.0241,0.16077 0.10508,0.24081 0.24288,0.24081 0.13896,10e-4 0.22124,-0.0789 0.2465,-0.24081 v -3.04581 c -0.0253,-0.16307 -0.10754,-0.24403 -0.2465,-0.24288 -0.1378,0 -0.21876,0.081 -0.24288,0.24288 v 1.13895 h -1.38647 v -1.13895 c -0.0126,-0.15962 -0.0911,-0.24058 -0.23461,-0.24288 z m 8.21706,0.002 c -0.12947,0.0126 -0.25591,0.0548 -0.37878,0.12661 -0.24461,0.14239 -0.39274,0.35467 -0.44442,0.63717 -0.003,0.0126 -0.007,0.0561 -0.0104,0.13074 -0.002,0.0746 -0.001,0.1173 0.002,0.12764 0.009,0.0758 0.0458,0.13303 0.11007,0.17208 0.0655,0.039 0.13608,0.0469 0.21187,0.0227 0.0494,-0.0149 0.0903,-0.0473 0.12248,-0.0966 0.0322,-0.0505 0.0446,-0.1022 0.0377,-0.15503 0,-0.003 -5.3e-4,-0.007 -0.002,-0.0103 v -0.0119 c -0.007,-0.1757 0.0663,-0.30793 0.22015,-0.39636 0.15388,-0.0884 0.30546,-0.0863 0.45475,0.007 0.12173,0.0781 0.1885,0.18449 0.19999,0.31885 0.0126,0.13435 -0.0274,0.25453 -0.12041,0.36018 -0.0724,0.0781 -0.14389,0.14871 -0.21394,0.21187 -0.0689,0.062 -0.1455,0.12138 -0.23048,0.1788 -0.24,0.16192 -0.44499,0.36995 -0.61495,0.62374 -0.16881,0.25379 -0.28249,0.52118 -0.34106,0.80253 -0.002,0.0103 -0.0101,0.0513 -0.0227,0.12248 -0.0115,0.0701 -0.0171,0.10622 -0.0171,0.10852 0,0.0689 0.0237,0.12706 0.0708,0.17415 0.0482,0.0471 0.10588,0.0703 0.17363,0.0703 h 1.57097 c 0.15503,0 0.23518,-0.0783 0.23978,-0.23565 0.005,-0.15733 -0.0725,-0.24133 -0.231,-0.25166 h -1.27735 c 0,-0.003 0.007,-0.0272 0.0207,-0.0708 0.0149,-0.0436 0.0239,-0.0686 0.0274,-0.0754 0.0425,-0.11598 0.0997,-0.22927 0.17208,-0.33951 0.0735,-0.11025 0.15193,-0.21147 0.23461,-0.30334 0.0724,-0.0792 0.15371,-0.14814 0.24443,-0.20671 0.0919,-0.0586 0.17932,-0.1223 0.262,-0.1912 0.0528,-0.0436 0.10186,-0.0888 0.1478,-0.13591 0.0471,-0.0482 0.0936,-0.0969 0.13952,-0.14624 0.22508,-0.24461 0.30219,-0.53055 0.231,-0.85783 -0.0712,-0.32729 -0.26797,-0.54737 -0.59067,-0.65991 -0.13608,-0.0465 -0.26894,-0.0633 -0.39842,-0.0506 z" />
    <rect
       style="fill:#00ff00;stroke-width:0.102926;stroke-miterlimit:4;stroke-dasharray:none"
       id="rect2095"
       width="1.27"
       height="69.849998"
       x="123.66806"
       y="44.108418" />
    <rect
       style="fill:#00ff00;stroke-width:0.0310334;stroke-miterlimit:4;stroke-dasharray:none"
       id="rect2095-7"
       width="1.27"
       height="6.3499999"
       x="82.166092"
       y="-99.427666"
       transform="rotate(90)" />
    <rect
       style="fill:#00ff00;stroke-width:0.0310334;stroke-miterlimit:4;stroke-dasharray:none"
       id="rect2095-7-5"
       width="1.27"
       height="6.3499999"
       x="82.166092"
       y="-72.440178"
       transform="rotate(90)" />
    <circle
       style="fill:#ff0000;stroke-width:0.489998"
       id="path1666"
       sodipodi:type="arc"
       sodipodi:cx="110.58194"
       sodipodi:cy="82.875084"
       sodipodi:rx="4.9000001"
       sodipodi:ry="4.9000001"
       sodipodi:start="0"
       sodipodi:end="6.1693026"
       sodipodi:open="true"
       sodipodi:arc-type="arc"
       d="m 115.48194,82.875084 a 4.9000001,4.9000001 0 0 1 -4.76051,4.898014 4.9000001,4.9000001 0 0 1 -5.03155,-4.619152 4.9000001,4.9000001 0 0 1 4.47405,-5.161 4.9000001,4.9000001 0 0 1 5.28627,4.325318" />
    <circle
       style="fill:#ff0000;stroke-width:0.489997"
       id="path1666-1"
       sodipodi:type="arc"
       sodipodi:cx="54.929245"
       sodipodi:cy="-82.875084"
       sodipodi:rx="4.9000001"
       sodipodi:ry="4.9000001"
       sodipodi:start="0"
       sodipodi:end="6.1693026"
       sodipodi:open="true"
       sodipodi:arc-type="arc"
       transform="scale(1,-1)"
       d="m 59.829245,-82.875084 a 4.9000001,4.9000001 0 0 1 -4.760513,4.898014 4.9000001,4.9000001 0 0 1 -5.031546,-4.619152 4.9000001,4.9000001 0 0 1 4.474049,-5.161 4.9000001,4.9000001 0 0 1 5.28627,4.325318" />
    <circle
       style="fill:#ff0000;stroke-width:0.489997"
       id="path1666-1-0"
       sodipodi:type="arc"
       sodipodi:cx="82.755661"
       sodipodi:cy="-82.875084"
       sodipodi:rx="4.9000001"
       sodipodi:ry="4.9000001"
       sodipodi:start="0"
       sodipodi:end="6.1693026"
       sodipodi:open="true"
       sodipodi:arc-type="arc"
       transform="scale(1,-1)"
       d="m 87.655661,-82.875084 a 4.9000001,4.9000001 0 0 1 -4.760513,4.898014 4.9000001,4.9000001 0 0 1 -5.031546,-4.619152 4.9000001,4.9000001 0 0 1 4.474049,-5.161 4.9000001,4.9000001 0 0 1 5.28627,4.325318" />
    <path
       id="rect3462"
       style="fill:none;fill-opacity:1;stroke:#000000;stroke-width:0.99778"
       d="M 140.26758 154.5332 L 140.26758 203.30273 L 140.1543 203.30273 A 31.857001 26.330274 0 0 1 140.10742 205.27734 A 31.857001 26.330274 0 0 1 107.98047 230.10547 L 107.98047 230.125 L 86.15625 229.98633 L 80.556641 229.99414 L 80.558594 229.95117 L 76.03125 229.91992 L 76.03125 367.11328 L 80.558594 367.08203 L 80.556641 367.03906 L 86.15625 367.04688 L 107.98047 366.9082 L 107.98047 366.92773 A 31.857001 26.330274 0 0 1 140.10742 391.75586 A 31.857001 26.330274 0 0 1 140.1543 393.73047 L 140.26758 393.73047 L 140.26758 442.5 L 590.26367 442.5 L 590.26367 393.73047 L 590.37695 393.73047 A 31.857042 26.330112 0 0 1 590.42578 391.75781 A 31.857042 26.330112 0 0 1 622.55078 366.92773 L 622.55078 366.9082 L 644.375 367.04688 L 649.97461 367.03906 L 649.97266 367.08203 L 654.5 367.11328 L 654.5 229.91992 L 649.9707 229.95117 L 649.97461 229.99414 L 644.375 229.98633 L 622.55078 230.125 L 622.55078 230.10547 A 31.857044 26.330112 0 0 1 590.42383 205.27539 A 31.857044 26.330112 0 0 1 590.375 203.30273 L 590.26367 203.30273 L 590.26367 154.5332 L 140.26758 154.5332 z "
       transform="scale(0.26458333)" />
  </g>
</svg>
