solid Untitled-5bce79df
facet normal -0.944546862888326 0.3283766493035429 0.0
  outer loop
    vertex 409.63859802058073 148.87317568652236 0.7999999999999999
    vertex 409.40714455088386 148.20741991743685 0.0
    vertex 409.40714455088386 148.20741991743685 0.7999999999999999
  endloop
endfacet
facet normal -0.944546862888326 0.3283766493035429 0.0
  outer loop
    vertex 409.40714455088386 148.20741991743685 0.0
    vertex 409.63859802058073 148.87317568652236 0.7999999999999999
    vertex 409.63859802058073 148.87317568652236 0.0
  endloop
endfacet
facet normal -0.6538132536743346 0.7566559517507151 0.0
  outer loop
    vertex 408.47794492539884 147.16341911819316 0.7999999999999999
    vertex 409.01126739449325 147.6242537920888 0.0
    vertex 408.47794492539884 147.16341911819316 0.0
  endloop
endfacet
facet normal -0.6538132536743346 0.7566559517507151 0.0
  outer loop
    vertex 409.01126739449325 147.6242537920888 0.0
    vertex 408.47794492539884 147.16341911819316 0.7999999999999999
    vertex 409.01126739449325 147.6242537920888 0.7999999999999999
  endloop
endfacet
facet normal 0.12768741687583643 -0.9918144602553325 0.0
  outer loop
    vertex 410.83520469832473 134.9193876580994 0.7999999999999999
    vertex 406.95147175174736 134.4193910885229 0.0
    vertex 410.83520469832473 134.9193876580994 0.0
  endloop
endfacet
facet normal 0.12768741687583643 -0.9918144602553325 0.0
  outer loop
    vertex 406.95147175174736 134.4193910885229 0.0
    vertex 410.83520469832473 134.9193876580994 0.7999999999999999
    vertex 406.95147175174736 134.4193910885229 0.7999999999999999
  endloop
endfacet
facet normal -0.5616542034198705 -0.8273720781974644 -0.0
  outer loop
    vertex 408.7894885572496 151.43618429346878 0.7999999999999999
    vertex 408.2063224319015 151.83206144985945 0.0
    vertex 408.7894885572496 151.43618429346878 0.0
  endloop
endfacet
facet normal -0.5616542034198705 -0.8273720781974644 -0.0
  outer loop
    vertex 408.2063224319015 151.83206144985945 0.0
    vertex 408.7894885572496 151.43618429346878 0.7999999999999999
    vertex 408.2063224319015 151.83206144985945 0.7999999999999999
  endloop
endfacet
facet normal -0.7950928099839525 -0.6064877768857528 -0.0
  outer loop
    vertex 393.98261441140005 141.95654833019708 0.7999999999999999
    vertex 396.3574906157471 138.84313522173468 0.0
    vertex 396.3574906157471 138.84313522173468 0.7999999999999999
  endloop
endfacet
facet normal -0.7950928099839525 -0.6064877768857528 -0.0
  outer loop
    vertex 396.3574906157471 138.84313522173468 0.0
    vertex 393.98261441140005 141.95654833019708 0.7999999999999999
    vertex 393.98261441140005 141.95654833019708 0.0
  endloop
endfacet
facet normal -0.9249712667401677 -0.38003704517466397 -0.0
  outer loop
    vertex 392.49447075912383 145.57853765101362 0.7999999999999999
    vertex 393.98261441140005 141.95654833019708 0.0
    vertex 393.98261441140005 141.95654833019708 0.7999999999999999
  endloop
endfacet
facet normal -0.9249712667401677 -0.38003704517466397 -0.0
  outer loop
    vertex 393.98261441140005 141.95654833019708 0.0
    vertex 392.49447075912383 145.57853765101362 0.7999999999999999
    vertex 392.49447075912383 145.57853765101362 0.0
  endloop
endfacet
facet normal -0.9227802268597881 0.38532668336957693 0.0
  outer loop
    vertex 394.02555538483415 156.95648686583115 0.7999999999999999
    vertex 392.5166986426038 153.34307718779226 0.0
    vertex 392.5166986426038 153.34307718779226 0.7999999999999999
  endloop
endfacet
facet normal -0.9227802268597881 0.38532668336957693 0.0
  outer loop
    vertex 392.5166986426038 153.34307718779226 0.0
    vertex 394.02555538483415 156.95648686583115 0.7999999999999999
    vertex 394.02555538483415 156.95648686583115 0.0
  endloop
endfacet
facet normal -0.9000928474026713 -0.43569813639095567 -0.0
  outer loop
    vertex 409.25032323114516 150.90286182437444 0.7999999999999999
    vertex 409.5574213321278 150.2684390874882 0.0
    vertex 409.5574213321278 150.2684390874882 0.7999999999999999
  endloop
endfacet
facet normal -0.9000928474026713 -0.43569813639095567 -0.0
  outer loop
    vertex 409.5574213321278 150.2684390874882 0.0
    vertex 409.25032323114516 150.90286182437444 0.7999999999999999
    vertex 409.25032323114516 150.90286182437444 0.0
  endloop
endfacet
facet normal -0.13336389786964392 -0.9910671373549904 -0.0
  outer loop
    vertex 406.95147175174736 134.4193910885229 0.7999999999999999
    vertex 403.07066516154606 134.94161554157935 0.0
    vertex 406.95147175174736 134.4193910885229 0.0
  endloop
endfacet
facet normal -0.13336389786964392 -0.9910671373549904 -0.0
  outer loop
    vertex 403.07066516154606 134.94161554157935 0.0
    vertex 406.95147175174736 134.4193910885229 0.7999999999999999
    vertex 403.07066516154606 134.94161554157935 0.7999999999999999
  endloop
endfacet
facet normal -0.385326683369579 -0.9227802268597872 -0.0
  outer loop
    vertex 403.07066516154606 134.94161554157935 0.7999999999999999
    vertex 399.4572554835072 136.45047228380972 0.0
    vertex 403.07066516154606 134.94161554157935 0.0
  endloop
endfacet
facet normal -0.385326683369579 -0.9227802268597872 -0.0
  outer loop
    vertex 399.4572554835072 136.45047228380972 0.0
    vertex 403.07066516154606 134.94161554157935 0.7999999999999999
    vertex 399.4572554835072 136.45047228380972 0.7999999999999999
  endloop
endfacet
facet normal -0.6110300921803251 -0.7916073688705176 -0.0
  outer loop
    vertex 399.4572554835072 136.45047228380972 0.7999999999999999
    vertex 396.3574906157471 138.84313522173468 0.0
    vertex 399.4572554835072 136.45047228380972 0.0
  endloop
endfacet
facet normal -0.6110300921803251 -0.7916073688705176 -0.0
  outer loop
    vertex 396.3574906157471 138.84313522173468 0.0
    vertex 399.4572554835072 136.45047228380972 0.7999999999999999
    vertex 396.3574906157471 138.84313522173468 0.7999999999999999
  endloop
endfacet
facet normal -0.991814460255332 -0.12768741687584065 -0.0
  outer loop
    vertex 391.9944741895473 149.46227059759104 0.7999999999999999
    vertex 392.49447075912383 145.57853765101362 0.0
    vertex 392.49447075912383 145.57853765101362 0.7999999999999999
  endloop
endfacet
facet normal -0.991814460255332 -0.12768741687584065 -0.0
  outer loop
    vertex 392.49447075912383 145.57853765101362 0.0
    vertex 391.9944741895473 149.46227059759104 0.7999999999999999
    vertex 391.9944741895473 149.46227059759104 0.0
  endloop
endfacet
facet normal -0.9910671373549895 0.13336389786965108 0.0
  outer loop
    vertex 392.5166986426038 153.34307718779226 0.7999999999999999
    vertex 391.9944741895473 149.46227059759104 0.0
    vertex 391.9944741895473 149.46227059759104 0.7999999999999999
  endloop
endfacet
facet normal -0.9910671373549895 0.13336389786965108 0.0
  outer loop
    vertex 391.9944741895473 149.46227059759104 0.0
    vertex 392.5166986426038 153.34307718779226 0.7999999999999999
    vertex 392.5166986426038 153.34307718779226 0.0
  endloop
endfacet
facet normal -0.9973523398108614 0.07272076920523074 0.0
  outer loop
    vertex 409.68985463211897 149.5761509438956 0.7999999999999999
    vertex 409.63859802058073 148.87317568652236 0.0
    vertex 409.63859802058073 148.87317568652236 0.7999999999999999
  endloop
endfacet
facet normal -0.9973523398108614 0.07272076920523074 0.0
  outer loop
    vertex 409.63859802058073 148.87317568652236 0.0
    vertex 409.68985463211897 149.5761509438956 0.7999999999999999
    vertex 409.68985463211897 149.5761509438956 0.0
  endloop
endfacet
facet normal -0.7566559517507394 -0.6538132536743063 -0.0
  outer loop
    vertex 408.7894885572496 151.43618429346878 0.7999999999999999
    vertex 409.25032323114516 150.90286182437444 0.0
    vertex 409.25032323114516 150.90286182437444 0.7999999999999999
  endloop
endfacet
facet normal -0.7566559517507394 -0.6538132536743063 -0.0
  outer loop
    vertex 409.25032323114516 150.90286182437444 0.0
    vertex 408.7894885572496 151.43618429346878 0.7999999999999999
    vertex 408.7894885572496 151.43618429346878 0.0
  endloop
endfacet
facet normal -0.7916073688705203 0.6110300921803214 0.0
  outer loop
    vertex 396.41821832275906 160.05625173359124 0.7999999999999999
    vertex 394.02555538483415 156.95648686583115 0.0
    vertex 394.02555538483415 156.95648686583115 0.7999999999999999
  endloop
endfacet
facet normal -0.7916073688705203 0.6110300921803214 0.0
  outer loop
    vertex 394.02555538483415 156.95648686583115 0.0
    vertex 396.41821832275906 160.05625173359124 0.7999999999999999
    vertex 396.41821832275906 160.05625173359124 0.0
  endloop
endfacet
facet normal -0.8273720781974685 0.5616542034198642 0.0
  outer loop
    vertex 409.40714455088386 148.20741991743685 0.7999999999999999
    vertex 409.01126739449325 147.6242537920888 0.0
    vertex 409.01126739449325 147.6242537920888 0.7999999999999999
  endloop
endfacet
facet normal -0.8273720781974685 0.5616542034198642 0.0
  outer loop
    vertex 409.01126739449325 147.6242537920888 0.0
    vertex 409.40714455088386 148.20741991743685 0.7999999999999999
    vertex 409.40714455088386 148.20741991743685 0.0
  endloop
endfacet
facet normal -0.9821899029779684 -0.18789091113763115 -0.0
  outer loop
    vertex 409.5574213321278 150.2684390874882 0.7999999999999999
    vertex 409.68985463211897 149.5761509438956 0.0
    vertex 409.68985463211897 149.5761509438956 0.7999999999999999
  endloop
endfacet
facet normal -0.9821899029779684 -0.18789091113763115 -0.0
  outer loop
    vertex 409.68985463211897 149.5761509438956 0.0
    vertex 409.5574213321278 150.2684390874882 0.7999999999999999
    vertex 409.5574213321278 150.2684390874882 0.0
  endloop
endfacet
facet normal -0.07272076920523539 -0.997352339810861 -0.0
  outer loop
    vertex 407.540566662816 152.06351491955635 0.7999999999999999
    vertex 406.83759140544277 152.1147715310946 0.0
    vertex 407.540566662816 152.06351491955635 0.0
  endloop
endfacet
facet normal -0.07272076920523539 -0.997352339810861 -0.0
  outer loop
    vertex 406.83759140544277 152.1147715310946 0.0
    vertex 407.540566662816 152.06351491955635 0.7999999999999999
    vertex 406.83759140544277 152.1147715310946 0.7999999999999999
  endloop
endfacet
facet normal -0.3283766493035714 -0.9445468628883161 -0.0
  outer loop
    vertex 408.2063224319015 151.83206144985945 0.7999999999999999
    vertex 407.540566662816 152.06351491955635 0.0
    vertex 408.2063224319015 151.83206144985945 0.0
  endloop
endfacet
facet normal -0.3283766493035714 -0.9445468628883161 -0.0
  outer loop
    vertex 407.540566662816 152.06351491955635 0.0
    vertex 408.2063224319015 151.83206144985945 0.7999999999999999
    vertex 407.540566662816 152.06351491955635 0.7999999999999999
  endloop
endfacet
facet normal 0.18789091113761933 -0.9821899029779706 0.0
  outer loop
    vertex 406.83759140544277 152.1147715310946 0.7999999999999999
    vertex 406.1453032618502 151.9823382311034 0.0
    vertex 406.83759140544277 152.1147715310946 0.0
  endloop
endfacet
facet normal 0.18789091113761933 -0.9821899029779706 0.0
  outer loop
    vertex 406.1453032618502 151.9823382311034 0.0
    vertex 406.83759140544277 152.1147715310946 0.7999999999999999
    vertex 406.1453032618502 151.9823382311034 0.7999999999999999
  endloop
endfacet
facet normal 0.43569813639095567 -0.9000928474026713 0.0
  outer loop
    vertex 406.1453032618502 151.9823382311034 0.7999999999999999
    vertex 405.5108805249639 151.67524013012078 0.0
    vertex 406.1453032618502 151.9823382311034 0.0
  endloop
endfacet
facet normal 0.43569813639095567 -0.9000928474026713 0.0
  outer loop
    vertex 405.5108805249639 151.67524013012078 0.0
    vertex 406.1453032618502 151.9823382311034 0.7999999999999999
    vertex 405.5108805249639 151.67524013012078 0.7999999999999999
  endloop
endfacet
facet normal 0.0 0.0 1.0
  outer loop
    vertex 392.49447075912383 145.57853765101362 0.7999999999999999
    vertex 392.5166986426038 153.34307718779226 0.7999999999999999
    vertex 391.9944741895473 149.46227059759104 0.7999999999999999
  endloop
endfacet
facet normal 0.0 0.0 1.0
  outer loop
    vertex 392.5166986426038 153.34307718779226 0.7999999999999999
    vertex 392.49447075912383 145.57853765101362 0.7999999999999999
    vertex 393.98261441140005 141.95654833019708 0.7999999999999999
  endloop
endfacet
facet normal 0.0 0.0 1.0
  outer loop
    vertex 392.5166986426038 153.34307718779226 0.7999999999999999
    vertex 393.98261441140005 141.95654833019708 0.7999999999999999
    vertex 394.02555538483415 156.95648686583115 0.7999999999999999
  endloop
endfacet
facet normal 0.0 0.0 1.0
  outer loop
    vertex 394.02555538483415 156.95648686583115 0.7999999999999999
    vertex 393.98261441140005 141.95654833019708 0.7999999999999999
    vertex 396.3574906157471 138.84313522173468 0.7999999999999999
  endloop
endfacet
facet normal 0.0 0.0 1.0
  outer loop
    vertex 394.02555538483415 156.95648686583115 0.7999999999999999
    vertex 396.3574906157471 138.84313522173468 0.7999999999999999
    vertex 396.41821832275906 160.05625173359124 0.7999999999999999
  endloop
endfacet
facet normal 0.0 0.0 1.0
  outer loop
    vertex 396.41821832275906 160.05625173359124 0.7999999999999999
    vertex 396.3574906157471 138.84313522173468 0.7999999999999999
    vertex 399.4572554835072 136.45047228380972 0.7999999999999999
  endloop
endfacet
facet normal 0.0 0.0 1.0
  outer loop
    vertex 396.41821832275906 160.05625173359124 0.7999999999999999
    vertex 399.4572554835072 136.45047228380972 0.7999999999999999
    vertex 399.53163143122146 162.4311279379383 0.7999999999999999
  endloop
endfacet
facet normal 0.0 0.0 1.0
  outer loop
    vertex 399.53163143122146 162.4311279379383 0.7999999999999999
    vertex 399.4572554835072 136.45047228380972 0.7999999999999999
    vertex 403.07066516154606 134.94161554157935 0.7999999999999999
  endloop
endfacet
facet normal 0.0 0.0 1.0
  outer loop
    vertex 399.53163143122146 162.4311279379383 0.7999999999999999
    vertex 403.07066516154606 134.94161554157935 0.7999999999999999
    vertex 403.153620752038 163.91927159021455 0.7999999999999999
  endloop
endfacet
facet normal 0.0 0.0 1.0
  outer loop
    vertex 403.153620752038 163.91927159021455 0.7999999999999999
    vertex 403.07066516154606 134.94161554157935 0.7999999999999999
    vertex 404.2989708182438 149.26250830441833 0.7999999999999999
  endloop
endfacet
facet normal 0.0 0.0 1.0
  outer loop
    vertex 404.2989708182438 149.26250830441833 0.7999999999999999
    vertex 403.07066516154606 134.94161554157935 0.7999999999999999
    vertex 406.95147175174736 134.4193910885229 0.7999999999999999
  endloop
endfacet
facet normal 0.0 0.0 1.0
  outer loop
    vertex 404.2989708182438 149.26250830441833 0.7999999999999999
    vertex 406.95147175174736 134.4193910885229 0.7999999999999999
    vertex 404.4314041182349 148.57022016082578 0.7999999999999999
  endloop
endfacet
facet normal 0.0 0.0 1.0
  outer loop
    vertex 404.4314041182349 148.57022016082578 0.7999999999999999
    vertex 406.95147175174736 134.4193910885229 0.7999999999999999
    vertex 404.73850221921754 147.9357974239395 0.7999999999999999
  endloop
endfacet
facet normal 0.0 0.0 1.0
  outer loop
    vertex 404.73850221921754 147.9357974239395 0.7999999999999999
    vertex 406.95147175174736 134.4193910885229 0.7999999999999999
    vertex 405.1993368931132 147.4024749548452 0.7999999999999999
  endloop
endfacet
facet normal 0.0 0.0 1.0
  outer loop
    vertex 405.1993368931132 147.4024749548452 0.7999999999999999
    vertex 406.95147175174736 134.4193910885229 0.7999999999999999
    vertex 405.7825030184612 147.00659779845452 0.7999999999999999
  endloop
endfacet
facet normal 0.0 0.0 1.0
  outer loop
    vertex 405.7825030184612 147.00659779845452 0.7999999999999999
    vertex 406.95147175174736 134.4193910885229 0.7999999999999999
    vertex 406.44825878754676 146.77514432875762 0.7999999999999999
  endloop
endfacet
facet normal 0.0 0.0 1.0
  outer loop
    vertex 406.44825878754676 146.77514432875762 0.7999999999999999
    vertex 406.95147175174736 134.4193910885229 0.7999999999999999
    vertex 407.15123404492005 146.72388771721938 0.7999999999999999
  endloop
endfacet
facet normal 0.0 0.0 1.0
  outer loop
    vertex 407.15123404492005 146.72388771721938 0.7999999999999999
    vertex 406.95147175174736 134.4193910885229 0.7999999999999999
    vertex 410.83520469832473 134.9193876580994 0.7999999999999999
  endloop
endfacet
facet normal 0.0 0.0 1.0
  outer loop
    vertex 407.15123404492005 146.72388771721938 0.7999999999999999
    vertex 410.83520469832473 134.9193876580994 0.7999999999999999
    vertex 407.8435221885127 146.85632101721055 0.7999999999999999
  endloop
endfacet
facet normal 0.0 0.0 1.0
  outer loop
    vertex 407.8435221885127 146.85632101721055 0.7999999999999999
    vertex 410.83520469832473 134.9193876580994 0.7999999999999999
    vertex 408.47794492539884 147.16341911819316 0.7999999999999999
  endloop
endfacet
facet normal 0.0 0.0 1.0
  outer loop
    vertex 408.47794492539884 147.16341911819316 0.7999999999999999
    vertex 410.83520469832473 134.9193876580994 0.7999999999999999
    vertex 409.01126739449325 147.6242537920888 0.7999999999999999
  endloop
endfacet
facet normal 0.0 0.0 1.0
  outer loop
    vertex 409.01126739449325 147.6242537920888 0.7999999999999999
    vertex 410.83520469832473 134.9193876580994 0.7999999999999999
    vertex 409.40714455088386 148.20741991743685 0.7999999999999999
  endloop
endfacet
facet normal 0.0 0.0 1.0
  outer loop
    vertex 409.40714455088386 148.20741991743685 0.7999999999999999
    vertex 410.83520469832473 134.9193876580994 0.7999999999999999
    vertex 409.63859802058073 148.87317568652236 0.7999999999999999
  endloop
endfacet
facet normal 0.0 0.0 1.0
  outer loop
    vertex 409.63859802058073 148.87317568652236 0.7999999999999999
    vertex 410.83520469832473 134.9193876580994 0.7999999999999999
    vertex 409.68985463211897 149.5761509438956 0.7999999999999999
  endloop
endfacet
facet normal 0.0 0.0 1.0
  outer loop
    vertex 403.153620752038 163.91927159021455 0.7999999999999999
    vertex 404.350227429782 149.96548356179161 0.7999999999999999
    vertex 407.0373536986154 164.41926815979107 0.7999999999999999
  endloop
endfacet
facet normal 0.0 0.0 1.0
  outer loop
    vertex 404.350227429782 149.96548356179161 0.7999999999999999
    vertex 403.153620752038 163.91927159021455 0.7999999999999999
    vertex 404.2989708182438 149.26250830441833 0.7999999999999999
  endloop
endfacet
facet normal 0.0 0.0 1.0
  outer loop
    vertex 407.0373536986154 164.41926815979107 0.7999999999999999
    vertex 404.350227429782 149.96548356179161 0.7999999999999999
    vertex 404.5816808994789 150.63123933087712 0.7999999999999999
  endloop
endfacet
facet normal 0.0 0.0 1.0
  outer loop
    vertex 407.0373536986154 164.41926815979107 0.7999999999999999
    vertex 404.5816808994789 150.63123933087712 0.7999999999999999
    vertex 404.97755805586957 151.21440545622514 0.7999999999999999
  endloop
endfacet
facet normal 0.0 0.0 1.0
  outer loop
    vertex 407.0373536986154 164.41926815979107 0.7999999999999999
    vertex 404.97755805586957 151.21440545622514 0.7999999999999999
    vertex 405.5108805249639 151.67524013012078 0.7999999999999999
  endloop
endfacet
facet normal 0.0 0.0 1.0
  outer loop
    vertex 407.0373536986154 164.41926815979107 0.7999999999999999
    vertex 405.5108805249639 151.67524013012078 0.7999999999999999
    vertex 406.1453032618502 151.9823382311034 0.7999999999999999
  endloop
endfacet
facet normal 0.0 0.0 1.0
  outer loop
    vertex 407.0373536986154 164.41926815979107 0.7999999999999999
    vertex 406.1453032618502 151.9823382311034 0.7999999999999999
    vertex 406.83759140544277 152.1147715310946 0.7999999999999999
  endloop
endfacet
facet normal 0.0 0.0 1.0
  outer loop
    vertex 407.0373536986154 164.41926815979107 0.7999999999999999
    vertex 406.83759140544277 152.1147715310946 0.7999999999999999
    vertex 407.540566662816 152.06351491955635 0.7999999999999999
  endloop
endfacet
facet normal 0.0 0.0 1.0
  outer loop
    vertex 407.0373536986154 164.41926815979107 0.7999999999999999
    vertex 407.540566662816 152.06351491955635 0.7999999999999999
    vertex 410.91816028881664 163.89704370673462 0.7999999999999999
  endloop
endfacet
facet normal 0.0 0.0 1.0
  outer loop
    vertex 410.91816028881664 163.89704370673462 0.7999999999999999
    vertex 407.540566662816 152.06351491955635 0.7999999999999999
    vertex 408.2063224319015 151.83206144985945 0.7999999999999999
  endloop
endfacet
facet normal 0.0 0.0 1.0
  outer loop
    vertex 410.91816028881664 163.89704370673462 0.7999999999999999
    vertex 408.2063224319015 151.83206144985945 0.7999999999999999
    vertex 408.7894885572496 151.43618429346878 0.7999999999999999
  endloop
endfacet
facet normal 0.0 0.0 1.0
  outer loop
    vertex 410.91816028881664 163.89704370673462 0.7999999999999999
    vertex 408.7894885572496 151.43618429346878 0.7999999999999999
    vertex 409.25032323114516 150.90286182437444 0.7999999999999999
  endloop
endfacet
facet normal 0.0 0.0 1.0
  outer loop
    vertex 410.91816028881664 163.89704370673462 0.7999999999999999
    vertex 409.25032323114516 150.90286182437444 0.7999999999999999
    vertex 409.5574213321278 150.2684390874882 0.7999999999999999
  endloop
endfacet
facet normal 0.0 0.0 1.0
  outer loop
    vertex 410.91816028881664 163.89704370673462 0.7999999999999999
    vertex 409.5574213321278 150.2684390874882 0.7999999999999999
    vertex 409.68985463211897 149.5761509438956 0.7999999999999999
  endloop
endfacet
facet normal 0.0 0.0 1.0
  outer loop
    vertex 410.91816028881664 163.89704370673462 0.7999999999999999
    vertex 409.68985463211897 149.5761509438956 0.7999999999999999
    vertex 410.83520469832473 134.9193876580994 0.7999999999999999
  endloop
endfacet
facet normal 0.0 0.0 1.0
  outer loop
    vertex 410.91816028881664 163.89704370673462 0.7999999999999999
    vertex 410.83520469832473 134.9193876580994 0.7999999999999999
    vertex 414.4571940191413 136.40753131037567 0.7999999999999999
  endloop
endfacet
facet normal 0.0 0.0 1.0
  outer loop
    vertex 410.91816028881664 163.89704370673462 0.7999999999999999
    vertex 414.4571940191413 136.40753131037567 0.7999999999999999
    vertex 414.53156996685556 162.38818696450423 0.7999999999999999
  endloop
endfacet
facet normal 0.0 0.0 1.0
  outer loop
    vertex 414.53156996685556 162.38818696450423 0.7999999999999999
    vertex 414.4571940191413 136.40753131037567 0.7999999999999999
    vertex 417.57060712760364 138.78240751472273 0.7999999999999999
  endloop
endfacet
facet normal 0.0 0.0 1.0
  outer loop
    vertex 414.53156996685556 162.38818696450423 0.7999999999999999
    vertex 417.57060712760364 138.78240751472273 0.7999999999999999
    vertex 417.63133483461564 159.9955240265793 0.7999999999999999
  endloop
endfacet
facet normal 0.0 0.0 1.0
  outer loop
    vertex 417.63133483461564 159.9955240265793 0.7999999999999999
    vertex 417.57060712760364 138.78240751472273 0.7999999999999999
    vertex 419.96327006552866 141.8821723824828 0.7999999999999999
  endloop
endfacet
facet normal 0.0 0.0 1.0
  outer loop
    vertex 417.63133483461564 159.9955240265793 0.7999999999999999
    vertex 419.96327006552866 141.8821723824828 0.7999999999999999
    vertex 420.00621103896265 156.8821109181169 0.7999999999999999
  endloop
endfacet
facet normal 0.0 0.0 1.0
  outer loop
    vertex 420.00621103896265 156.8821109181169 0.7999999999999999
    vertex 419.96327006552866 141.8821723824828 0.7999999999999999
    vertex 421.472126807759 145.4955820605217 0.7999999999999999
  endloop
endfacet
facet normal 0.0 0.0 1.0
  outer loop
    vertex 420.00621103896265 156.8821109181169 0.7999999999999999
    vertex 421.472126807759 145.4955820605217 0.7999999999999999
    vertex 421.4943546912389 153.26012159730033 0.7999999999999999
  endloop
endfacet
facet normal 0.0 0.0 1.0
  outer loop
    vertex 421.4943546912389 153.26012159730033 0.7999999999999999
    vertex 421.472126807759 145.4955820605217 0.7999999999999999
    vertex 421.99435126081545 149.3763886507229 0.7999999999999999
  endloop
endfacet
facet normal -0.12768741687583643 0.9918144602553325 0.0
  outer loop
    vertex 403.153620752038 163.91927159021455 0.7999999999999999
    vertex 407.0373536986154 164.41926815979107 0.0
    vertex 403.153620752038 163.91927159021455 0.0
  endloop
endfacet
facet normal -0.12768741687583643 0.9918144602553325 0.0
  outer loop
    vertex 407.0373536986154 164.41926815979107 0.0
    vertex 403.153620752038 163.91927159021455 0.7999999999999999
    vertex 407.0373536986154 164.41926815979107 0.7999999999999999
  endloop
endfacet
facet normal -0.6064877768857528 0.7950928099839525 0.0
  outer loop
    vertex 396.41821832275906 160.05625173359124 0.7999999999999999
    vertex 399.53163143122146 162.4311279379383 0.0
    vertex 396.41821832275906 160.05625173359124 0.0
  endloop
endfacet
facet normal -0.6064877768857528 0.7950928099839525 0.0
  outer loop
    vertex 399.53163143122146 162.4311279379383 0.0
    vertex 396.41821832275906 160.05625173359124 0.7999999999999999
    vertex 399.53163143122146 162.4311279379383 0.7999999999999999
  endloop
endfacet
facet normal -0.38003704517466685 0.9249712667401665 0.0
  outer loop
    vertex 399.53163143122146 162.4311279379383 0.7999999999999999
    vertex 403.153620752038 163.91927159021455 0.0
    vertex 399.53163143122146 162.4311279379383 0.0
  endloop
endfacet
facet normal -0.38003704517466685 0.9249712667401665 0.0
  outer loop
    vertex 403.153620752038 163.91927159021455 0.0
    vertex 399.53163143122146 162.4311279379383 0.7999999999999999
    vertex 403.153620752038 163.91927159021455 0.7999999999999999
  endloop
endfacet
facet normal 0.7950928099839579 0.6064877768857455 0.0
  outer loop
    vertex 417.63133483461564 159.9955240265793 0.0
    vertex 420.00621103896265 156.8821109181169 0.7999999999999999
    vertex 420.00621103896265 156.8821109181169 0.0
  endloop
endfacet
facet normal 0.7950928099839579 0.6064877768857455 0.0
  outer loop
    vertex 420.00621103896265 156.8821109181169 0.7999999999999999
    vertex 417.63133483461564 159.9955240265793 0.0
    vertex 417.63133483461564 159.9955240265793 0.7999999999999999
  endloop
endfacet
facet normal 0.991814460255332 0.12768741687584065 0.0
  outer loop
    vertex 421.4943546912389 153.26012159730033 0.0
    vertex 421.99435126081545 149.3763886507229 0.7999999999999999
    vertex 421.99435126081545 149.3763886507229 0.0
  endloop
endfacet
facet normal 0.991814460255332 0.12768741687584065 0.0
  outer loop
    vertex 421.99435126081545 149.3763886507229 0.7999999999999999
    vertex 421.4943546912389 153.26012159730033 0.0
    vertex 421.4943546912389 153.26012159730033 0.7999999999999999
  endloop
endfacet
facet normal 0.385326683369579 0.9227802268597872 0.0
  outer loop
    vertex 410.91816028881664 163.89704370673462 0.7999999999999999
    vertex 414.53156996685556 162.38818696450423 0.0
    vertex 410.91816028881664 163.89704370673462 0.0
  endloop
endfacet
facet normal 0.385326683369579 0.9227802268597872 0.0
  outer loop
    vertex 414.53156996685556 162.38818696450423 0.0
    vertex 410.91816028881664 163.89704370673462 0.7999999999999999
    vertex 414.53156996685556 162.38818696450423 0.7999999999999999
  endloop
endfacet
facet normal 0.9910671373549909 -0.13336389786964054 0.0
  outer loop
    vertex 421.99435126081545 149.3763886507229 0.0
    vertex 421.472126807759 145.4955820605217 0.7999999999999999
    vertex 421.472126807759 145.4955820605217 0.0
  endloop
endfacet
facet normal 0.9910671373549909 -0.13336389786964054 0.0
  outer loop
    vertex 421.472126807759 145.4955820605217 0.7999999999999999
    vertex 421.99435126081545 149.3763886507229 0.0
    vertex 421.99435126081545 149.3763886507229 0.7999999999999999
  endloop
endfacet
facet normal 0.9227802268597881 -0.38532668336957693 0.0
  outer loop
    vertex 421.472126807759 145.4955820605217 0.0
    vertex 419.96327006552866 141.8821723824828 0.7999999999999999
    vertex 419.96327006552866 141.8821723824828 0.0
  endloop
endfacet
facet normal 0.9227802268597881 -0.38532668336957693 0.0
  outer loop
    vertex 419.96327006552866 141.8821723824828 0.7999999999999999
    vertex 421.472126807759 145.4955820605217 0.0
    vertex 421.472126807759 145.4955820605217 0.7999999999999999
  endloop
endfacet
facet normal 0.13336389786964392 0.9910671373549904 0.0
  outer loop
    vertex 407.0373536986154 164.41926815979107 0.7999999999999999
    vertex 410.91816028881664 163.89704370673462 0.0
    vertex 407.0373536986154 164.41926815979107 0.0
  endloop
endfacet
facet normal 0.13336389786964392 0.9910671373549904 0.0
  outer loop
    vertex 410.91816028881664 163.89704370673462 0.0
    vertex 407.0373536986154 164.41926815979107 0.7999999999999999
    vertex 410.91816028881664 163.89704370673462 0.7999999999999999
  endloop
endfacet
facet normal 0.6110300921803196 0.7916073688705219 0.0
  outer loop
    vertex 414.53156996685556 162.38818696450423 0.7999999999999999
    vertex 417.63133483461564 159.9955240265793 0.0
    vertex 414.53156996685556 162.38818696450423 0.0
  endloop
endfacet
facet normal 0.6110300921803196 0.7916073688705219 0.0
  outer loop
    vertex 417.63133483461564 159.9955240265793 0.0
    vertex 414.53156996685556 162.38818696450423 0.7999999999999999
    vertex 417.63133483461564 159.9955240265793 0.7999999999999999
  endloop
endfacet
facet normal 0.9249712667401685 0.3800370451746619 0.0
  outer loop
    vertex 420.00621103896265 156.8821109181169 0.0
    vertex 421.4943546912389 153.26012159730033 0.7999999999999999
    vertex 421.4943546912389 153.26012159730033 0.0
  endloop
endfacet
facet normal 0.9249712667401685 0.3800370451746619 0.0
  outer loop
    vertex 421.4943546912389 153.26012159730033 0.7999999999999999
    vertex 420.00621103896265 156.8821109181169 0.0
    vertex 420.00621103896265 156.8821109181169 0.7999999999999999
  endloop
endfacet
facet normal 0.38003704517466685 -0.9249712667401665 0.0
  outer loop
    vertex 414.4571940191413 136.40753131037567 0.7999999999999999
    vertex 410.83520469832473 134.9193876580994 0.0
    vertex 414.4571940191413 136.40753131037567 0.0
  endloop
endfacet
facet normal 0.38003704517466685 -0.9249712667401665 0.0
  outer loop
    vertex 410.83520469832473 134.9193876580994 0.0
    vertex 414.4571940191413 136.40753131037567 0.7999999999999999
    vertex 410.83520469832473 134.9193876580994 0.7999999999999999
  endloop
endfacet
facet normal 0.7916073688705092 -0.6110300921803359 0.0
  outer loop
    vertex 419.96327006552866 141.8821723824828 0.0
    vertex 417.57060712760364 138.78240751472273 0.7999999999999999
    vertex 417.57060712760364 138.78240751472273 0.0
  endloop
endfacet
facet normal 0.7916073688705092 -0.6110300921803359 0.0
  outer loop
    vertex 417.57060712760364 138.78240751472273 0.7999999999999999
    vertex 419.96327006552866 141.8821723824828 0.0
    vertex 419.96327006552866 141.8821723824828 0.7999999999999999
  endloop
endfacet
facet normal 0.6064877768857584 -0.7950928099839482 0.0
  outer loop
    vertex 417.57060712760364 138.78240751472273 0.7999999999999999
    vertex 414.4571940191413 136.40753131037567 0.0
    vertex 417.57060712760364 138.78240751472273 0.0
  endloop
endfacet
facet normal 0.6064877768857584 -0.7950928099839482 0.0
  outer loop
    vertex 414.4571940191413 136.40753131037567 0.0
    vertex 417.57060712760364 138.78240751472273 0.7999999999999999
    vertex 414.4571940191413 136.40753131037567 0.7999999999999999
  endloop
endfacet
facet normal 0.0 0.0 -1.0
  outer loop
    vertex 403.153620752038 163.91927159021455 0.0
    vertex 404.350227429782 149.96548356179161 0.0
    vertex 404.2989708182438 149.26250830441833 0.0
  endloop
endfacet
facet normal 0.0 0.0 -1.0
  outer loop
    vertex 404.350227429782 149.96548356179161 0.0
    vertex 403.153620752038 163.91927159021455 0.0
    vertex 407.0373536986154 164.41926815979107 0.0
  endloop
endfacet
facet normal 0.0 0.0 -1.0
  outer loop
    vertex 404.350227429782 149.96548356179161 0.0
    vertex 407.0373536986154 164.41926815979107 0.0
    vertex 404.5816808994789 150.63123933087712 0.0
  endloop
endfacet
facet normal 0.0 0.0 -1.0
  outer loop
    vertex 404.5816808994789 150.63123933087712 0.0
    vertex 407.0373536986154 164.41926815979107 0.0
    vertex 404.97755805586957 151.21440545622514 0.0
  endloop
endfacet
facet normal 0.0 0.0 -1.0
  outer loop
    vertex 404.97755805586957 151.21440545622514 0.0
    vertex 407.0373536986154 164.41926815979107 0.0
    vertex 405.5108805249639 151.67524013012078 0.0
  endloop
endfacet
facet normal 0.0 0.0 -1.0
  outer loop
    vertex 405.5108805249639 151.67524013012078 0.0
    vertex 407.0373536986154 164.41926815979107 0.0
    vertex 406.1453032618502 151.9823382311034 0.0
  endloop
endfacet
facet normal 0.0 0.0 -1.0
  outer loop
    vertex 406.1453032618502 151.9823382311034 0.0
    vertex 407.0373536986154 164.41926815979107 0.0
    vertex 406.83759140544277 152.1147715310946 0.0
  endloop
endfacet
facet normal 0.0 0.0 -1.0
  outer loop
    vertex 406.83759140544277 152.1147715310946 0.0
    vertex 407.0373536986154 164.41926815979107 0.0
    vertex 407.540566662816 152.06351491955635 0.0
  endloop
endfacet
facet normal 0.0 0.0 -1.0
  outer loop
    vertex 407.540566662816 152.06351491955635 0.0
    vertex 407.0373536986154 164.41926815979107 0.0
    vertex 410.91816028881664 163.89704370673462 0.0
  endloop
endfacet
facet normal 0.0 0.0 -1.0
  outer loop
    vertex 407.540566662816 152.06351491955635 0.0
    vertex 410.91816028881664 163.89704370673462 0.0
    vertex 408.2063224319015 151.83206144985945 0.0
  endloop
endfacet
facet normal 0.0 0.0 -1.0
  outer loop
    vertex 408.2063224319015 151.83206144985945 0.0
    vertex 410.91816028881664 163.89704370673462 0.0
    vertex 408.7894885572496 151.43618429346878 0.0
  endloop
endfacet
facet normal 0.0 0.0 -1.0
  outer loop
    vertex 408.7894885572496 151.43618429346878 0.0
    vertex 410.91816028881664 163.89704370673462 0.0
    vertex 409.25032323114516 150.90286182437444 0.0
  endloop
endfacet
facet normal 0.0 0.0 -1.0
  outer loop
    vertex 409.25032323114516 150.90286182437444 0.0
    vertex 410.91816028881664 163.89704370673462 0.0
    vertex 409.5574213321278 150.2684390874882 0.0
  endloop
endfacet
facet normal 0.0 0.0 -1.0
  outer loop
    vertex 409.5574213321278 150.2684390874882 0.0
    vertex 410.91816028881664 163.89704370673462 0.0
    vertex 409.68985463211897 149.5761509438956 0.0
  endloop
endfacet
facet normal 0.0 0.0 -1.0
  outer loop
    vertex 409.68985463211897 149.5761509438956 0.0
    vertex 410.91816028881664 163.89704370673462 0.0
    vertex 410.83520469832473 134.9193876580994 0.0
  endloop
endfacet
facet normal 0.0 0.0 -1.0
  outer loop
    vertex 410.83520469832473 134.9193876580994 0.0
    vertex 410.91816028881664 163.89704370673462 0.0
    vertex 414.4571940191413 136.40753131037567 0.0
  endloop
endfacet
facet normal 0.0 0.0 -1.0
  outer loop
    vertex 414.4571940191413 136.40753131037567 0.0
    vertex 410.91816028881664 163.89704370673462 0.0
    vertex 414.53156996685556 162.38818696450423 0.0
  endloop
endfacet
facet normal 0.0 0.0 -1.0
  outer loop
    vertex 414.4571940191413 136.40753131037567 0.0
    vertex 414.53156996685556 162.38818696450423 0.0
    vertex 417.57060712760364 138.78240751472273 0.0
  endloop
endfacet
facet normal 0.0 0.0 -1.0
  outer loop
    vertex 417.57060712760364 138.78240751472273 0.0
    vertex 414.53156996685556 162.38818696450423 0.0
    vertex 417.63133483461564 159.9955240265793 0.0
  endloop
endfacet
facet normal 0.0 0.0 -1.0
  outer loop
    vertex 417.57060712760364 138.78240751472273 0.0
    vertex 417.63133483461564 159.9955240265793 0.0
    vertex 419.96327006552866 141.8821723824828 0.0
  endloop
endfacet
facet normal 0.0 0.0 -1.0
  outer loop
    vertex 419.96327006552866 141.8821723824828 0.0
    vertex 417.63133483461564 159.9955240265793 0.0
    vertex 420.00621103896265 156.8821109181169 0.0
  endloop
endfacet
facet normal 0.0 0.0 -1.0
  outer loop
    vertex 419.96327006552866 141.8821723824828 0.0
    vertex 420.00621103896265 156.8821109181169 0.0
    vertex 421.472126807759 145.4955820605217 0.0
  endloop
endfacet
facet normal 0.0 0.0 -1.0
  outer loop
    vertex 421.472126807759 145.4955820605217 0.0
    vertex 420.00621103896265 156.8821109181169 0.0
    vertex 421.4943546912389 153.26012159730033 0.0
  endloop
endfacet
facet normal 0.0 0.0 -1.0
  outer loop
    vertex 421.472126807759 145.4955820605217 0.0
    vertex 421.4943546912389 153.26012159730033 0.0
    vertex 421.99435126081545 149.3763886507229 0.0
  endloop
endfacet
facet normal 0.0 0.0 -1.0
  outer loop
    vertex 392.5166986426038 153.34307718779226 0.0
    vertex 392.49447075912383 145.57853765101362 0.0
    vertex 391.9944741895473 149.46227059759104 0.0
  endloop
endfacet
facet normal 0.0 0.0 -1.0
  outer loop
    vertex 392.49447075912383 145.57853765101362 0.0
    vertex 392.5166986426038 153.34307718779226 0.0
    vertex 393.98261441140005 141.95654833019708 0.0
  endloop
endfacet
facet normal 0.0 0.0 -1.0
  outer loop
    vertex 393.98261441140005 141.95654833019708 0.0
    vertex 392.5166986426038 153.34307718779226 0.0
    vertex 394.02555538483415 156.95648686583115 0.0
  endloop
endfacet
facet normal 0.0 0.0 -1.0
  outer loop
    vertex 393.98261441140005 141.95654833019708 0.0
    vertex 394.02555538483415 156.95648686583115 0.0
    vertex 396.3574906157471 138.84313522173468 0.0
  endloop
endfacet
facet normal 0.0 0.0 -1.0
  outer loop
    vertex 396.3574906157471 138.84313522173468 0.0
    vertex 394.02555538483415 156.95648686583115 0.0
    vertex 396.41821832275906 160.05625173359124 0.0
  endloop
endfacet
facet normal 0.0 0.0 -1.0
  outer loop
    vertex 396.3574906157471 138.84313522173468 0.0
    vertex 396.41821832275906 160.05625173359124 0.0
    vertex 399.4572554835072 136.45047228380972 0.0
  endloop
endfacet
facet normal 0.0 0.0 -1.0
  outer loop
    vertex 399.4572554835072 136.45047228380972 0.0
    vertex 396.41821832275906 160.05625173359124 0.0
    vertex 399.53163143122146 162.4311279379383 0.0
  endloop
endfacet
facet normal 0.0 0.0 -1.0
  outer loop
    vertex 399.4572554835072 136.45047228380972 0.0
    vertex 399.53163143122146 162.4311279379383 0.0
    vertex 403.07066516154606 134.94161554157935 0.0
  endloop
endfacet
facet normal 0.0 0.0 -1.0
  outer loop
    vertex 403.07066516154606 134.94161554157935 0.0
    vertex 399.53163143122146 162.4311279379383 0.0
    vertex 403.153620752038 163.91927159021455 0.0
  endloop
endfacet
facet normal 0.0 0.0 -1.0
  outer loop
    vertex 403.07066516154606 134.94161554157935 0.0
    vertex 403.153620752038 163.91927159021455 0.0
    vertex 404.2989708182438 149.26250830441833 0.0
  endloop
endfacet
facet normal 0.0 0.0 -1.0
  outer loop
    vertex 403.07066516154606 134.94161554157935 0.0
    vertex 404.2989708182438 149.26250830441833 0.0
    vertex 406.95147175174736 134.4193910885229 0.0
  endloop
endfacet
facet normal 0.0 0.0 -1.0
  outer loop
    vertex 406.95147175174736 134.4193910885229 0.0
    vertex 404.2989708182438 149.26250830441833 0.0
    vertex 404.4314041182349 148.57022016082578 0.0
  endloop
endfacet
facet normal 0.0 0.0 -1.0
  outer loop
    vertex 406.95147175174736 134.4193910885229 0.0
    vertex 404.4314041182349 148.57022016082578 0.0
    vertex 404.73850221921754 147.9357974239395 0.0
  endloop
endfacet
facet normal 0.0 0.0 -1.0
  outer loop
    vertex 406.95147175174736 134.4193910885229 0.0
    vertex 404.73850221921754 147.9357974239395 0.0
    vertex 405.1993368931132 147.4024749548452 0.0
  endloop
endfacet
facet normal 0.0 0.0 -1.0
  outer loop
    vertex 406.95147175174736 134.4193910885229 0.0
    vertex 405.1993368931132 147.4024749548452 0.0
    vertex 405.7825030184612 147.00659779845452 0.0
  endloop
endfacet
facet normal 0.0 0.0 -1.0
  outer loop
    vertex 406.95147175174736 134.4193910885229 0.0
    vertex 405.7825030184612 147.00659779845452 0.0
    vertex 406.44825878754676 146.77514432875762 0.0
  endloop
endfacet
facet normal 0.0 0.0 -1.0
  outer loop
    vertex 406.95147175174736 134.4193910885229 0.0
    vertex 406.44825878754676 146.77514432875762 0.0
    vertex 407.15123404492005 146.72388771721938 0.0
  endloop
endfacet
facet normal 0.0 0.0 -1.0
  outer loop
    vertex 406.95147175174736 134.4193910885229 0.0
    vertex 407.15123404492005 146.72388771721938 0.0
    vertex 410.83520469832473 134.9193876580994 0.0
  endloop
endfacet
facet normal 0.0 0.0 -1.0
  outer loop
    vertex 410.83520469832473 134.9193876580994 0.0
    vertex 407.15123404492005 146.72388771721938 0.0
    vertex 407.8435221885127 146.85632101721055 0.0
  endloop
endfacet
facet normal 0.0 0.0 -1.0
  outer loop
    vertex 410.83520469832473 134.9193876580994 0.0
    vertex 407.8435221885127 146.85632101721055 0.0
    vertex 408.47794492539884 147.16341911819316 0.0
  endloop
endfacet
facet normal 0.0 0.0 -1.0
  outer loop
    vertex 410.83520469832473 134.9193876580994 0.0
    vertex 408.47794492539884 147.16341911819316 0.0
    vertex 409.01126739449325 147.6242537920888 0.0
  endloop
endfacet
facet normal 0.0 0.0 -1.0
  outer loop
    vertex 410.83520469832473 134.9193876580994 0.0
    vertex 409.01126739449325 147.6242537920888 0.0
    vertex 409.40714455088386 148.20741991743685 0.0
  endloop
endfacet
facet normal 0.0 0.0 -1.0
  outer loop
    vertex 410.83520469832473 134.9193876580994 0.0
    vertex 409.40714455088386 148.20741991743685 0.0
    vertex 409.63859802058073 148.87317568652236 0.0
  endloop
endfacet
facet normal 0.0 0.0 -1.0
  outer loop
    vertex 410.83520469832473 134.9193876580994 0.0
    vertex 409.63859802058073 148.87317568652236 0.0
    vertex 409.68985463211897 149.5761509438956 0.0
  endloop
endfacet
facet normal 0.6538132536743796 -0.7566559517506761 0.0
  outer loop
    vertex 405.5108805249639 151.67524013012078 0.7999999999999999
    vertex 404.97755805586957 151.21440545622514 0.0
    vertex 405.5108805249639 151.67524013012078 0.0
  endloop
endfacet
facet normal 0.6538132536743796 -0.7566559517506761 0.0
  outer loop
    vertex 404.97755805586957 151.21440545622514 0.0
    vertex 405.5108805249639 151.67524013012078 0.7999999999999999
    vertex 404.97755805586957 151.21440545622514 0.7999999999999999
  endloop
endfacet
facet normal 0.8273720781974386 -0.5616542034199079 0.0
  outer loop
    vertex 404.97755805586957 151.21440545622514 0.0
    vertex 404.5816808994789 150.63123933087712 0.7999999999999999
    vertex 404.5816808994789 150.63123933087712 0.0
  endloop
endfacet
facet normal 0.8273720781974386 -0.5616542034199079 0.0
  outer loop
    vertex 404.5816808994789 150.63123933087712 0.7999999999999999
    vertex 404.97755805586957 151.21440545622514 0.0
    vertex 404.97755805586957 151.21440545622514 0.7999999999999999
  endloop
endfacet
facet normal 0.9445468628883061 -0.32837664930359994 0.0
  outer loop
    vertex 404.5816808994789 150.63123933087712 0.0
    vertex 404.350227429782 149.96548356179161 0.7999999999999999
    vertex 404.350227429782 149.96548356179161 0.0
  endloop
endfacet
facet normal 0.9445468628883061 -0.32837664930359994 0.0
  outer loop
    vertex 404.350227429782 149.96548356179161 0.7999999999999999
    vertex 404.5816808994789 150.63123933087712 0.0
    vertex 404.5816808994789 150.63123933087712 0.7999999999999999
  endloop
endfacet
facet normal 0.9973523398108614 -0.07272076920523074 0.0
  outer loop
    vertex 404.350227429782 149.96548356179161 0.0
    vertex 404.2989708182438 149.26250830441833 0.7999999999999999
    vertex 404.2989708182438 149.26250830441833 0.0
  endloop
endfacet
facet normal 0.9973523398108614 -0.07272076920523074 0.0
  outer loop
    vertex 404.2989708182438 149.26250830441833 0.7999999999999999
    vertex 404.350227429782 149.96548356179161 0.0
    vertex 404.350227429782 149.96548356179161 0.7999999999999999
  endloop
endfacet
facet normal 0.9821899029779684 0.18789091113763115 0.0
  outer loop
    vertex 404.2989708182438 149.26250830441833 0.0
    vertex 404.4314041182349 148.57022016082578 0.7999999999999999
    vertex 404.4314041182349 148.57022016082578 0.0
  endloop
endfacet
facet normal 0.9821899029779684 0.18789091113763115 0.0
  outer loop
    vertex 404.4314041182349 148.57022016082578 0.7999999999999999
    vertex 404.2989708182438 149.26250830441833 0.0
    vertex 404.2989708182438 149.26250830441833 0.7999999999999999
  endloop
endfacet
facet normal 0.3283766493035714 0.9445468628883161 0.0
  outer loop
    vertex 405.7825030184612 147.00659779845452 0.7999999999999999
    vertex 406.44825878754676 146.77514432875762 0.0
    vertex 405.7825030184612 147.00659779845452 0.0
  endloop
endfacet
facet normal 0.3283766493035714 0.9445468628883161 0.0
  outer loop
    vertex 406.44825878754676 146.77514432875762 0.0
    vertex 405.7825030184612 147.00659779845452 0.7999999999999999
    vertex 406.44825878754676 146.77514432875762 0.7999999999999999
  endloop
endfacet
facet normal 0.07272076920522609 0.9973523398108616 0.0
  outer loop
    vertex 406.44825878754676 146.77514432875762 0.7999999999999999
    vertex 407.15123404492005 146.72388771721938 0.0
    vertex 406.44825878754676 146.77514432875762 0.0
  endloop
endfacet
facet normal 0.07272076920522609 0.9973523398108616 0.0
  outer loop
    vertex 407.15123404492005 146.72388771721938 0.0
    vertex 406.44825878754676 146.77514432875762 0.7999999999999999
    vertex 407.15123404492005 146.72388771721938 0.7999999999999999
  endloop
endfacet
facet normal -0.4356981363909799 0.9000928474026595 0.0
  outer loop
    vertex 407.8435221885127 146.85632101721055 0.7999999999999999
    vertex 408.47794492539884 147.16341911819316 0.0
    vertex 407.8435221885127 146.85632101721055 0.0
  endloop
endfacet
facet normal -0.4356981363909799 0.9000928474026595 0.0
  outer loop
    vertex 408.47794492539884 147.16341911819316 0.0
    vertex 407.8435221885127 146.85632101721055 0.7999999999999999
    vertex 408.47794492539884 147.16341911819316 0.7999999999999999
  endloop
endfacet
facet normal -0.18789091113761933 0.9821899029779706 0.0
  outer loop
    vertex 407.15123404492005 146.72388771721938 0.7999999999999999
    vertex 407.8435221885127 146.85632101721055 0.0
    vertex 407.15123404492005 146.72388771721938 0.0
  endloop
endfacet
facet normal -0.18789091113761933 0.9821899029779706 0.0
  outer loop
    vertex 407.8435221885127 146.85632101721055 0.0
    vertex 407.15123404492005 146.72388771721938 0.7999999999999999
    vertex 407.8435221885127 146.85632101721055 0.7999999999999999
  endloop
endfacet
facet normal 0.5616542034199299 0.827372078197424 0.0
  outer loop
    vertex 405.1993368931132 147.4024749548452 0.7999999999999999
    vertex 405.7825030184612 147.00659779845452 0.0
    vertex 405.1993368931132 147.4024749548452 0.0
  endloop
endfacet
facet normal 0.5616542034199299 0.827372078197424 0.0
  outer loop
    vertex 405.7825030184612 147.00659779845452 0.0
    vertex 405.1993368931132 147.4024749548452 0.7999999999999999
    vertex 405.7825030184612 147.00659779845452 0.7999999999999999
  endloop
endfacet
facet normal 0.9000928474026713 0.43569813639095567 0.0
  outer loop
    vertex 404.4314041182349 148.57022016082578 0.0
    vertex 404.73850221921754 147.9357974239395 0.7999999999999999
    vertex 404.73850221921754 147.9357974239395 0.0
  endloop
endfacet
facet normal 0.9000928474026713 0.43569813639095567 0.0
  outer loop
    vertex 404.73850221921754 147.9357974239395 0.7999999999999999
    vertex 404.4314041182349 148.57022016082578 0.0
    vertex 404.4314041182349 148.57022016082578 0.7999999999999999
  endloop
endfacet
facet normal 0.7566559517506761 0.6538132536743796 0.0
  outer loop
    vertex 404.73850221921754 147.9357974239395 0.0
    vertex 405.1993368931132 147.4024749548452 0.7999999999999999
    vertex 405.1993368931132 147.4024749548452 0.0
  endloop
endfacet
facet normal 0.7566559517506761 0.6538132536743796 0.0
  outer loop
    vertex 405.1993368931132 147.4024749548452 0.7999999999999999
    vertex 404.73850221921754 147.9357974239395 0.0
    vertex 404.73850221921754 147.9357974239395 0.7999999999999999
  endloop
endfacet
endsolid Untitled-5bce79df
