<?xml version="1.0" encoding="UTF-8" standalone="no"?>
<svg
   xmlns:dc="http://purl.org/dc/elements/1.1/"
   xmlns:cc="http://creativecommons.org/ns#"
   xmlns:rdf="http://www.w3.org/1999/02/22-rdf-syntax-ns#"
   xmlns:svg="http://www.w3.org/2000/svg"
   xmlns="http://www.w3.org/2000/svg"
   xmlns:sodipodi="http://sodipodi.sourceforge.net/DTD/sodipodi-0.dtd"
   xmlns:inkscape="http://www.inkscape.org/namespaces/inkscape"
   width="210mm"
   height="297mm"
   viewBox="0 0 210 297"
   version="1.1"
   id="svg8"
   inkscape:version="1.0.2-2 (e86c870879, 2021-01-15)"
   sodipodi:docname="UHF OLR.svg">
  <defs
     id="defs2" />
  <sodipodi:namedview
     id="base"
     pagecolor="#ffffff"
     bordercolor="#666666"
     borderopacity="1.0"
     inkscape:pageopacity="0.0"
     inkscape:pageshadow="2"
     inkscape:zoom="1.0998546"
     inkscape:cx="-389.24112"
     inkscape:cy="635.40722"
     inkscape:document-units="mm"
     inkscape:current-layer="layer1"
     inkscape:document-rotation="0"
     showgrid="false"
     inkscape:window-width="3840"
     inkscape:window-height="2131"
     inkscape:window-x="-9"
     inkscape:window-y="-9"
     inkscape:window-maximized="1" />
  <metadata
     id="metadata5">
    <rdf:RDF>
      <cc:Work
         rdf:about="">
        <dc:format>image/svg+xml</dc:format>
        <dc:type
           rdf:resource="http://purl.org/dc/dcmitype/StillImage" />
        <dc:title />
      </cc:Work>
    </rdf:RDF>
  </metadata>
  <g
     inkscape:label="Calque 1"
     inkscape:groupmode="layer"
     id="layer1">
    <path
       id="rect1952-6"
       style="fill:#000000;fill-opacity:1;stroke:#000000;stroke-width:0.286774;stroke-opacity:1"
       d="m 55.099996,38.95731 v 12.903608 h -0.02946 a 8.4288314,6.9665516 0 0 1 -0.01292,0.522449 8.4288314,6.9665516 0 0 1 -8.500258,6.569106 v 0.0052 l -5.774325,-0.03669 -1.481561,0.0021 0.001,-0.01137 -1.198377,-0.0083 v 13.840499 h 9.523968 c -0.351652,0.03994 -0.708819,0.0609 -1.071769,0.05736 v 0.0062 l -5.773293,-0.04289 -1.481561,0.0015 5.16e-4,-0.01344 -1.197861,-0.0088 V 175.40118 l 1.198377,-0.009 -0.001,-0.0134 1.481561,0.002 5.773293,-0.0429 v 0.006 c 4.500512,-0.0442 8.242684,3.35418 8.499221,7.71839 0.01224,0.2044 0.01652,0.40921 0.01292,0.61391 h 0.02946 v 42.18244 H 173.53206 l -0.0429,-42.18244 h 0.03 c -0.004,-0.2045 3.8e-4,-0.4092 0.0124,-0.6134 0.2562,-4.36442 3.99794,-7.76303 8.49871,-7.7189 v -0.006 l 5.77381,0.0429 1.48104,-0.002 -5.2e-4,0.0134 1.19786,0.009 V 72.743879 h -5.1e-4 l -1.19735,0.0088 5.2e-4,0.01344 -1.48104,-0.0021 -5.77381,0.04289 v -0.0057 c -0.3621,0.0036 -0.71833,-0.01764 -1.06919,-0.05736 h 9.52087 V 58.90338 l -1.19838,0.0083 0.001,0.01137 -1.48156,-0.0021 -5.77432,0.03669 v -0.0052 a 8.4288428,6.9665087 0 0 1 -8.50026,-6.569625 8.4288428,6.9665087 0 0 1 -0.0129,-0.52193 h -0.0295 V 38.95731 Z" />
    <rect
       style="fill:none;stroke-width:0.264583"
       id="rect318"
       width="94.329193"
       height="17.96051"
       x="57.039471"
       y="172.14018" />
    <rect
       style="fill:none;stroke-width:0.264583"
       id="rect318-7"
       width="94.329193"
       height="17.96051"
       x="57.03944"
       y="172.14018" />
    <path
       style="fill:#ff0000;stroke:none;stroke-width:0.0533332"
       id="path3035-2-4-9"
       sodipodi:type="arc"
       sodipodi:cx="97.560303"
       sodipodi:cy="105.48972"
       sodipodi:rx="6.3499999"
       sodipodi:ry="6.3499999"
       sodipodi:start="0"
       sodipodi:end="6.1693026"
       sodipodi:open="true"
       sodipodi:arc-type="arc"
       d="m 103.9103,105.48972 a 6.3499999,6.3499999 0 0 1 -6.169233,6.34743 6.3499999,6.3499999 0 0 1 -6.520473,-5.98604 6.3499999,6.3499999 0 0 1 5.798002,-6.688238 6.3499999,6.3499999 0 0 1 6.850574,5.605258" />
    <path
       style="fill:#ff0000;stroke:none;stroke-width:0.0533335"
       id="path3035-4"
       sodipodi:type="arc"
       sodipodi:cx="67.20401"
       sodipodi:cy="105.48942"
       sodipodi:rx="6.3499999"
       sodipodi:ry="6.3499999"
       sodipodi:start="0"
       sodipodi:end="6.1693026"
       sodipodi:open="true"
       sodipodi:arc-type="arc"
       d="m 73.55401,105.48942 a 6.3499999,6.3499999 0 0 1 -6.169236,6.34742 6.3499999,6.3499999 0 0 1 -6.520472,-5.98604 6.3499999,6.3499999 0 0 1 5.798001,-6.688234 6.3499999,6.3499999 0 0 1 6.850574,5.605254" />
    <path
       style="fill:#ff0000;stroke:none;stroke-width:0.0533332"
       id="path3035-1-1"
       sodipodi:type="arc"
       sodipodi:cx="130.95129"
       sodipodi:cy="105.48972"
       sodipodi:rx="6.3499999"
       sodipodi:ry="6.3499999"
       sodipodi:start="0"
       sodipodi:end="6.1693026"
       sodipodi:open="true"
       sodipodi:arc-type="arc"
       d="m 137.30129,105.48972 a 6.3499999,6.3499999 0 0 1 -6.16923,6.34743 6.3499999,6.3499999 0 0 1 -6.52047,-5.98604 6.3499999,6.3499999 0 0 1 5.798,-6.688238 6.3499999,6.3499999 0 0 1 6.85057,5.605258" />
    <path
       style="fill:#ff0000;stroke:none;stroke-width:0.0533332"
       id="path3035-2-9"
       sodipodi:type="arc"
       sodipodi:cx="161.27943"
       sodipodi:cy="105.48972"
       sodipodi:rx="6.3499999"
       sodipodi:ry="6.3499999"
       sodipodi:start="0"
       sodipodi:end="6.1693026"
       sodipodi:open="true"
       sodipodi:arc-type="arc"
       d="m 167.62943,105.48972 a 6.3499999,6.3499999 0 0 1 -6.16923,6.34743 6.3499999,6.3499999 0 0 1 -6.52047,-5.98604 6.3499999,6.3499999 0 0 1 5.798,-6.688238 6.3499999,6.3499999 0 0 1 6.85057,5.605258" />
    <path
       style="fill:#ff0000;stroke:none;stroke-width:0.0533332"
       id="path3035-2-4-15"
       sodipodi:type="arc"
       sodipodi:cx="65.616997"
       sodipodi:cy="164.97578"
       sodipodi:rx="6.3499999"
       sodipodi:ry="6.3499999"
       sodipodi:start="0"
       sodipodi:end="6.1693026"
       sodipodi:open="true"
       sodipodi:arc-type="arc"
       d="m 71.966997,164.97578 a 6.3499999,6.3499999 0 0 1 -6.169236,6.34743 6.3499999,6.3499999 0 0 1 -6.520473,-5.98604 6.3499999,6.3499999 0 0 1 5.798002,-6.68824 6.3499999,6.3499999 0 0 1 6.850574,5.60526" />
    <text
       xml:space="preserve"
       style="font-size:10.5833px;line-height:1.25;font-family:'MS 33558';-inkscape-font-specification:'MS 33558, ';letter-spacing:0px;word-spacing:0px;fill:#ffffff;stroke-width:0.264583;fill-opacity:1;"
       x="101.94198"
       y="144.43971"
       id="text2370-9-1"><tspan
         sodipodi:role="line"
         id="tspan2368-0-5"
         x="101.94198"
         y="144.43971"
         style="font-style:normal;font-variant:normal;font-weight:normal;font-stretch:normal;font-size:4.23333px;font-family:sans-serif;-inkscape-font-specification:'sans-serif, Normal';font-variant-ligatures:normal;font-variant-caps:normal;font-variant-numeric:normal;font-variant-east-asian:normal;fill:#ffffff;stroke-width:0.264583;fill-opacity:1;">CHAN SEL</tspan></text>
    <path
       style="fill:#ff0000;stroke:none;stroke-width:0.0533332"
       id="path3035-2-4-1-1"
       sodipodi:type="arc"
       sodipodi:cx="159.692"
       sodipodi:cy="164.97578"
       sodipodi:rx="6.3499999"
       sodipodi:ry="6.3499999"
       sodipodi:start="0"
       sodipodi:end="6.1693026"
       sodipodi:open="true"
       sodipodi:arc-type="arc"
       d="m 166.042,164.97578 a 6.3499999,6.3499999 0 0 1 -6.16923,6.34743 6.3499999,6.3499999 0 0 1 -6.52048,-5.98604 6.3499999,6.3499999 0 0 1 5.798,-6.68824 6.3499999,6.3499999 0 0 1 6.85058,5.60526" />
    <text
       xml:space="preserve"
       style="font-size:10.5833px;line-height:1.25;font-family:'MS 33558';-inkscape-font-specification:'MS 33558, ';letter-spacing:0px;word-spacing:0px;fill:#ffffff;fill-opacity:1;stroke-width:0.264583"
       x="62.100719"
       y="70.378365"
       id="text2370-6-09"><tspan
         sodipodi:role="line"
         id="tspan2368-09-9"
         x="62.100719"
         y="70.378365"
         style="font-style:normal;font-variant:normal;font-weight:normal;font-stretch:normal;font-size:4.23333px;font-family:sans-serif;-inkscape-font-specification:'sans-serif, Normal';font-variant-ligatures:normal;font-variant-caps:normal;font-variant-numeric:normal;font-variant-east-asian:normal;fill:#ffffff;fill-opacity:1;stroke-width:0.264583">VOL</tspan></text>
    <text
       xml:space="preserve"
       style="font-size:4.2708px;line-height:1.25;font-family:'MS 33558';-inkscape-font-specification:'MS 33558, ';letter-spacing:0px;word-spacing:0px;fill:#ffffff;stroke-width:0.266925;fill-opacity:1;"
       x="85.223076"
       y="165.07188"
       id="text3164-67-2-66"
       transform="scale(0.99122616,1.0088515)"><tspan
         sodipodi:role="line"
         id="tspan3162-4-0-6"
         x="85.223076"
         y="165.07188"
         style="font-style:normal;font-variant:normal;font-weight:normal;font-stretch:normal;font-size:4.2708px;font-family:sans-serif;-inkscape-font-specification:'sans-serif, Normal';font-variant-ligatures:normal;font-variant-caps:normal;font-variant-numeric:normal;font-variant-east-asian:normal;fill:#ffffff;stroke-width:0.266925;fill-opacity:1;">MANUAL</tspan></text>
    <text
       xml:space="preserve"
       style="font-size:4.23333px;line-height:1.25;font-family:'MS 33558';-inkscape-font-specification:'MS 33558, ';letter-spacing:0px;word-spacing:0px;fill:#ffffff;stroke-width:0.264583;fill-opacity:1;"
       x="132.97375"
       y="162.94987"
       id="text3164-67-2-7-6"><tspan
         sodipodi:role="line"
         id="tspan3162-4-0-12-9"
         x="132.97375"
         y="162.94987"
         style="font-style:normal;font-variant:normal;font-weight:normal;font-stretch:normal;font-size:4.23333px;font-family:sans-serif;-inkscape-font-specification:'sans-serif, Normal';font-variant-ligatures:normal;font-variant-caps:normal;font-variant-numeric:normal;font-variant-east-asian:normal;fill:#ffffff;stroke-width:0.264583;fill-opacity:1;">BOTH</tspan></text>
    <text
       xml:space="preserve"
       style="font-size:4.23333px;line-height:1.25;font-family:'MS 33558';-inkscape-font-specification:'MS 33558, ';letter-spacing:0px;word-spacing:0px;fill:#ffffff;stroke-width:0.264583;fill-opacity:1;"
       x="84.652657"
       y="154.58434"
       id="text3164-67-2-9-19"><tspan
         id="tspan3162-4-0-4-43"
         x="84.652657"
         y="154.58434"
         style="font-style:normal;font-variant:normal;font-weight:normal;font-stretch:normal;font-size:4.23333px;font-family:sans-serif;-inkscape-font-specification:'sans-serif, Normal';font-variant-ligatures:normal;font-variant-caps:normal;font-variant-numeric:normal;font-variant-east-asian:normal;fill:#ffffff;stroke-width:0.264583;fill-opacity:1;"
         sodipodi:role="line">GUARD</tspan></text>
    <text
       xml:space="preserve"
       style="font-size:4.23333px;line-height:1.25;font-family:'MS 33558';-inkscape-font-specification:'MS 33558, ';letter-spacing:0px;word-spacing:0px;fill:#ffffff;stroke-width:0.264583;fill-opacity:1;"
       x="84.475334"
       y="179.96492"
       id="text3164-67-2-9-1-9-8"><tspan
         id="tspan3162-4-0-4-2-4-0"
         x="84.475334"
         y="179.96492"
         style="font-style:normal;font-variant:normal;font-weight:normal;font-stretch:normal;font-size:4.23333px;font-family:sans-serif;-inkscape-font-specification:'sans-serif, Normal';font-variant-ligatures:normal;font-variant-caps:normal;font-variant-numeric:normal;font-variant-east-asian:normal;fill:#ffffff;stroke-width:0.264583;fill-opacity:1;"
         sodipodi:role="line">PRESET</tspan></text>
    <text
       xml:space="preserve"
       style="font-size:4.23333px;line-height:1.25;font-family:'MS 33558';-inkscape-font-specification:'MS 33558, ';letter-spacing:0px;word-spacing:0px;white-space:pre;inline-size:0;fill:#ffffff;stroke-width:0.264583;fill-opacity:1;"
       x="130.50031"
       y="86.027122"
       id="text3164-67-2-9-1-96-6"
       transform="translate(12.223038,68.4093)"><tspan
         id="tspan3162-4-0-4-2-3-9"
         x="130.50031"
         y="86.027122"
         style="font-style:normal;font-variant:normal;font-weight:normal;font-stretch:normal;font-size:4.23333px;font-family:sans-serif;-inkscape-font-specification:'sans-serif, Normal';font-variant-ligatures:normal;font-variant-caps:normal;font-variant-numeric:normal;font-variant-east-asian:normal;fill:#ffffff;stroke-width:0.264583;fill-opacity:1;">ADF</tspan></text>
    <text
       xml:space="preserve"
       style="font-size:4.23333px;line-height:1.25;font-family:'MS 33558';-inkscape-font-specification:'MS 33558, ';letter-spacing:0px;word-spacing:0px;fill:#ffffff;stroke-width:0.264583;fill-opacity:1;"
       x="132.97408"
       y="171.8452"
       id="text3164-67-2-9-1-4-6"><tspan
         id="tspan3162-4-0-4-2-8-2"
         x="132.97408"
         y="171.8452"
         style="font-style:normal;font-variant:normal;font-weight:normal;font-stretch:normal;font-size:4.23333px;font-family:sans-serif;-inkscape-font-specification:'sans-serif, Normal';font-variant-ligatures:normal;font-variant-caps:normal;font-variant-numeric:normal;font-variant-east-asian:normal;fill:#ffffff;stroke-width:0.264583;fill-opacity:1;"
         sodipodi:role="line">MAIN</tspan></text>
    <rect
       style="fill:#ffffff;stroke:#000002;stroke-width:0.0120057;fill-opacity:1"
       id="rect3342-3-6"
       width="18.45336"
       height="0.21947543"
       x="83.438087"
       y="180.69826" />
    <text
       xml:space="preserve"
       style="font-size:4.23333px;line-height:1.25;font-family:'MS 33558';-inkscape-font-specification:'MS 33558, ';letter-spacing:0px;word-spacing:0px;fill:#ffffff;stroke-width:0.264583;fill-opacity:1;"
       x="142.51883"
       y="179.46797"
       id="text3164-67-2-7-2-6"><tspan
         sodipodi:role="line"
         id="tspan3162-4-0-12-2-2"
         x="142.51883"
         y="179.46797"
         style="font-style:normal;font-variant:normal;font-weight:normal;font-stretch:normal;font-size:4.23333px;font-family:sans-serif;-inkscape-font-specification:'sans-serif, Normal';font-variant-ligatures:normal;font-variant-caps:normal;font-variant-numeric:normal;font-variant-east-asian:normal;fill:#ffffff;stroke-width:0.264583;fill-opacity:1;">OFF</tspan></text>
    <path
       style="fill:#ff0000;stroke:none;stroke-width:0.0533332"
       id="path3035-2-4-9-2"
       sodipodi:type="arc"
       sodipodi:cx="113.20246"
       sodipodi:cy="164.976"
       sodipodi:rx="6.3499999"
       sodipodi:ry="6.3499999"
       sodipodi:start="0"
       sodipodi:end="6.1693026"
       sodipodi:open="true"
       sodipodi:arc-type="arc"
       d="m 119.55246,164.976 a 6.3499999,6.3499999 0 0 1 -6.16923,6.34742 6.3499999,6.3499999 0 0 1 -6.52048,-5.98604 6.3499999,6.3499999 0 0 1 5.798,-6.68823 6.3499999,6.3499999 0 0 1 6.85058,5.60525" />
    <rect
       style="fill:#f90000;fill-opacity:1;stroke:none;stroke-width:0.267828"
       id="rect6065"
       width="48"
       height="15.2"
       x="90.415627"
       y="50.912144" />
    <text
       xml:space="preserve"
       style="font-size:10.5833px;line-height:1.25;font-family:'MS 33558';-inkscape-font-specification:'MS 33558, ';letter-spacing:0px;word-spacing:0px;fill:#ffffff;fill-opacity:1;stroke-width:0.264583"
       x="157.4547"
       y="70.322975"
       id="text2370-6-5"><tspan
         sodipodi:role="line"
         id="tspan2368-09-8-2"
         x="157.4547"
         y="70.322975"
         style="font-style:normal;font-variant:normal;font-weight:normal;font-stretch:normal;font-size:4.23333px;font-family:sans-serif;-inkscape-font-specification:'sans-serif, Normal';font-variant-ligatures:normal;font-variant-caps:normal;font-variant-numeric:normal;font-variant-east-asian:normal;fill:#ffffff;fill-opacity:1;stroke-width:0.264583">BRT</tspan></text>
    <rect
       style="fill:#ffffff;stroke:#000002;stroke-width:0.00414361;fill-opacity:1"
       id="rect3342-3-5-15"
       width="2.1971166"
       height="0.21958071"
       x="180.62535"
       y="-92.555252"
       transform="matrix(-0.00388141,0.99999247,-0.9999931,-0.00371528,0,0)" />
    <rect
       style="fill:#ffffff;stroke:#000002;stroke-width:0.0164031;fill-opacity:1"
       id="rect3342-3-80"
       width="35.396992"
       height="0.21358708"
       x="91.62944"
       y="183.1667" />
    <rect
       style="fill:#ffffff;stroke:#000002;stroke-width:0.0120057;fill-opacity:1"
       id="rect3342-3-9"
       width="18.45336"
       height="0.21947543"
       x="103.51116"
       y="145.44035" />
    <rect
       style="fill:#ffffff;stroke:#000002;stroke-width:0.00414361;fill-opacity:1"
       id="rect3342-3-5-0"
       width="2.1971166"
       height="0.21958071"
       x="145.29121"
       y="-113.0206"
       transform="matrix(-0.00388141,0.99999247,-0.9999931,-0.00371528,0,0)" />
    <rect
       style="fill:#ffffff;stroke:#000002;stroke-width:0.0115654;fill-opacity:1"
       id="rect3342-3-9-0"
       width="14.657269"
       height="0.25642085"
       x="112.22692"
       y="147.90569" />
    <rect
       style="fill:#ffffff;stroke:#000002;stroke-width:0.00527507;fill-opacity:1"
       id="rect3342-3-9-0-2"
       width="3.4564917"
       height="0.22620609"
       x="127.01701"
       y="135.63351" />
    <text
       xml:space="preserve"
       style="font-size:10.5833px;line-height:1.25;font-family:'MS 33558';-inkscape-font-specification:'MS 33558, ';letter-spacing:0px;word-spacing:0px;fill:#ffffff;stroke-width:0.264583;fill-opacity:1;"
       x="132.21294"
       y="124.85606"
       id="text2370-6-7-4"><tspan
         sodipodi:role="line"
         id="tspan2368-09-2"
         x="132.21294"
         y="124.85606"
         style="font-style:normal;font-variant:normal;font-weight:normal;font-stretch:normal;font-size:4.23333px;font-family:sans-serif;-inkscape-font-specification:'sans-serif, Normal';font-variant-ligatures:normal;font-variant-caps:normal;font-variant-numeric:normal;font-variant-east-asian:normal;fill:#ffffff;stroke-width:0.264583;fill-opacity:1;">LOAD</tspan></text>
    <text
       xml:space="preserve"
       style="font-size:10.5833px;line-height:1.25;font-family:'MS 33558';-inkscape-font-specification:'MS 33558, ';letter-spacing:0px;word-spacing:0px;fill:#ffffff;stroke-width:0.264583;fill-opacity:1;"
       x="79.530617"
       y="123.26871"
       id="text2370-6-6"><tspan
         sodipodi:role="line"
         id="tspan2368-09-83"
         x="79.530617"
         y="123.26871"
         style="font-style:normal;font-variant:normal;font-weight:normal;font-stretch:normal;font-size:4.23333px;font-family:sans-serif;-inkscape-font-specification:'sans-serif, Normal';font-variant-ligatures:normal;font-variant-caps:normal;font-variant-numeric:normal;font-variant-east-asian:normal;fill:#ffffff;stroke-width:0.264583;fill-opacity:1;">TONE</tspan></text>
    <rect
       style="fill:none;stroke-width:0.264583"
       id="rect318-4"
       width="94.329193"
       height="17.96051"
       x="58.110607"
       y="172.47093" />
    <path
       style="fill:#ff0000;stroke:none;stroke-width:0.041155"
       id="path3035-7"
       sodipodi:type="arc"
       sodipodi:cx="66.318153"
       sodipodi:cy="78.120003"
       sodipodi:rx="4.9000001"
       sodipodi:ry="4.9000001"
       sodipodi:start="0"
       sodipodi:end="6.1693026"
       sodipodi:open="true"
       sodipodi:arc-type="arc"
       inkscape:transform-center-x="3.3040651"
       d="m 71.218153,78.120003 a 4.9000001,4.9000001 0 0 1 -4.760512,4.898014 4.9000001,4.9000001 0 0 1 -5.031546,-4.619152 4.9000001,4.9000001 0 0 1 4.474048,-5.161 4.9000001,4.9000001 0 0 1 5.28627,4.325318" />
    <path
       style="fill:#ff0000;stroke:none;stroke-width:0.041155"
       id="path3035-7-2"
       sodipodi:type="arc"
       sodipodi:cx="161.88596"
       sodipodi:cy="78.120094"
       sodipodi:rx="4.9000001"
       sodipodi:ry="4.9000001"
       sodipodi:start="0"
       sodipodi:end="6.1693026"
       sodipodi:open="true"
       sodipodi:arc-type="arc"
       inkscape:transform-center-x="3.3040651"
       d="m 166.78596,78.120094 a 4.9000001,4.9000001 0 0 1 -4.76052,4.898015 4.9000001,4.9000001 0 0 1 -5.03154,-4.619153 4.9000001,4.9000001 0 0 1 4.47405,-5.160999 4.9000001,4.9000001 0 0 1 5.28627,4.325317" />
    <path
       style="fill:#ff0000;stroke:none;stroke-width:0.0533332"
       id="path3035-2-4-15-0"
       sodipodi:type="arc"
       sodipodi:cx="85.007439"
       sodipodi:cy="135.65031"
       sodipodi:rx="6.3499999"
       sodipodi:ry="6.3499999"
       sodipodi:start="0"
       sodipodi:end="6.1693026"
       sodipodi:open="true"
       sodipodi:arc-type="arc"
       d="m 91.357439,135.65031 a 6.3499999,6.3499999 0 0 1 -6.169236,6.34743 6.3499999,6.3499999 0 0 1 -6.520473,-5.98604 6.3499999,6.3499999 0 0 1 5.798001,-6.68824 6.3499999,6.3499999 0 0 1 6.850575,5.60526" />
    <path
       style="fill:#ff0000;stroke:none;stroke-width:0.0533332"
       id="path3035-2-4-15-4"
       sodipodi:type="arc"
       sodipodi:cx="141.13406"
       sodipodi:cy="135.64999"
       sodipodi:rx="6.3499999"
       sodipodi:ry="6.3499999"
       sodipodi:start="0"
       sodipodi:end="6.1693026"
       sodipodi:open="true"
       sodipodi:arc-type="arc"
       d="m 147.48406,135.64999 a 6.3499999,6.3499999 0 0 1 -6.16923,6.34743 6.3499999,6.3499999 0 0 1 -6.52047,-5.98604 6.3499999,6.3499999 0 0 1 5.798,-6.68824 6.3499999,6.3499999 0 0 1 6.85057,5.60526" />
    <text
       xml:space="preserve"
       style="font-size:10.5833px;line-height:1.25;font-family:'MS 33558';-inkscape-font-specification:'MS 33558, ';letter-spacing:0px;word-spacing:0px;fill:#ffffff;stroke-width:0.264583;fill-opacity:1;"
       x="98.464729"
       y="46.278099"
       id="text2370-9-1-4"><tspan
         sodipodi:role="line"
         id="tspan2368-0-5-1"
         x="98.464729"
         y="46.278099"
         style="font-style:normal;font-variant:normal;font-weight:normal;font-stretch:normal;font-size:6.35px;font-family:sans-serif;-inkscape-font-specification:'sans-serif, Normal';font-variant-ligatures:normal;font-variant-caps:normal;font-variant-numeric:normal;font-variant-east-asian:normal;fill:#ffffff;stroke-width:0.264583;fill-opacity:1;">FQ/ CHAN</tspan></text>
    <path
       id="rect3342-38"
       style="fill:#ffffff;fill-opacity:1;stroke:#000002;stroke-width:0.047598"
       d="m 89.864554,67.653466 0.0071,1.106908 H 94.9568 l -27.89644,30.083429 0.797252,0.03007 27.949333,-30.113499 v 0 h 5.780525 l 0.0997,-1.106908 z"
       sodipodi:nodetypes="cccccccccc" />
    <path
       id="rect3342-9-2"
       style="fill:#ffffff;fill-opacity:1;stroke:#000002;stroke-width:0.0433259"
       d="m 105.01292,67.733586 -0.0226,1.0485 3.33274,-0.0434 -10.601836,29.716756 0.65552,0.0242 6.883486,-18.488852 4.158,-11.230344 3.26414,-0.004 0.0226,-1.04849 z"
       sodipodi:nodetypes="cccccccccc" />
    <path
       id="rect3342-4"
       style="fill:#ffffff;fill-opacity:1;stroke:#000002;stroke-width:0.0408182"
       d="m 127.92606,67.673846 v 1.17376 h 4.08332 l 26.48986,29.91426 c 0.46618,0.17357 0.73138,-0.0822 1.19755,0.0913 l -26.52084,-30.0056 h 4.71052 v -1.14792 z"
       sodipodi:nodetypes="ccccccccc" />
    <path
       id="rect3342-9-5"
       style="fill:#ffffff;fill-opacity:1;stroke:#000002;stroke-width:0.0362545"
       d="m 116.83046,67.622459 0.0269,1.08779 3.2644,-0.02585 9.02632,29.69588 0.786,0.06408 -9.02839,-29.774948 h 2.76003 v -0.02326 c 0.003,-5e-5 0.0111,5.8e-5 0.0145,0 l -0.0145,-1.012341 z" />
  </g>
</svg>
