<?xml version="1.0" encoding="UTF-8" standalone="no"?>
<svg
   xmlns:dc="http://purl.org/dc/elements/1.1/"
   xmlns:cc="http://creativecommons.org/ns#"
   xmlns:rdf="http://www.w3.org/1999/02/22-rdf-syntax-ns#"
   xmlns:svg="http://www.w3.org/2000/svg"
   xmlns="http://www.w3.org/2000/svg"
   xmlns:sodipodi="http://sodipodi.sourceforge.net/DTD/sodipodi-0.dtd"
   xmlns:inkscape="http://www.inkscape.org/namespaces/inkscape"
   width="8.5in"
   height="11in"
   viewBox="0 0 215.9 279.4"
   version="1.1"
   id="svg1685"
   inkscape:version="1.0.2-2 (e86c870879, 2021-01-15)"
   sodipodi:docname="UHFOLR.svg">
  <defs
     id="defs1679" />
  <sodipodi:namedview
     id="base"
     pagecolor="#ffffff"
     bordercolor="#666666"
     borderopacity="1.0"
     inkscape:pageopacity="0.0"
     inkscape:pageshadow="2"
     inkscape:zoom="0.64062499"
     inkscape:cx="452.49721"
     inkscape:cy="579.07666"
     inkscape:document-units="mm"
     inkscape:current-layer="layer1"
     inkscape:document-rotation="0"
     showgrid="false"
     inkscape:window-width="1920"
     inkscape:window-height="1058"
     inkscape:window-x="-6"
     inkscape:window-y="-6"
     inkscape:window-maximized="1"
     units="in" />
  <metadata
     id="metadata1682">
    <rdf:RDF>
      <cc:Work
         rdf:about="">
        <dc:format>image/svg+xml</dc:format>
        <dc:type
           rdf:resource="http://purl.org/dc/dcmitype/StillImage" />
        <dc:title />
      </cc:Work>
    </rdf:RDF>
  </metadata>
  <g
     inkscape:label="Layer 1"
     inkscape:groupmode="layer"
     id="layer1">
    <path
       style="fill:#ff0000;stroke:none;stroke-width:0.0533332"
       id="path3035-2-4-9"
       sodipodi:type="arc"
       sodipodi:cx="86.487"
       sodipodi:cy="62.612507"
       sodipodi:rx="6.3499999"
       sodipodi:ry="6.3499999"
       sodipodi:start="0"
       sodipodi:end="6.1693026"
       sodipodi:open="true"
       sodipodi:arc-type="arc"
       d="m 92.836999,62.612507 a 6.3499999,6.3499999 0 0 1 -6.169235,6.347426 6.3499999,6.3499999 0 0 1 -6.520473,-5.986044 6.3499999,6.3499999 0 0 1 5.798001,-6.688234 6.3499999,6.3499999 0 0 1 6.850574,5.605259" />
    <path
       style="fill:#ff0000;stroke:none;stroke-width:0.0533335"
       id="path3035"
       sodipodi:type="arc"
       sodipodi:cx="56.130707"
       sodipodi:cy="62.612209"
       sodipodi:rx="6.3499999"
       sodipodi:ry="6.3499999"
       sodipodi:start="0"
       sodipodi:end="6.1693026"
       sodipodi:open="true"
       sodipodi:arc-type="arc"
       d="m 62.480707,62.612209 a 6.3499999,6.3499999 0 0 1 -6.169236,6.347427 6.3499999,6.3499999 0 0 1 -6.520473,-5.986044 6.3499999,6.3499999 0 0 1 5.798002,-6.688234 6.3499999,6.3499999 0 0 1 6.850574,5.605258" />
    <path
       style="fill:#ff0000;stroke:none;stroke-width:0.0533332"
       id="path3035-1"
       sodipodi:type="arc"
       sodipodi:cx="119.878"
       sodipodi:cy="62.612507"
       sodipodi:rx="6.3499999"
       sodipodi:ry="6.3499999"
       sodipodi:start="0"
       sodipodi:end="6.1693026"
       sodipodi:open="true"
       sodipodi:arc-type="arc"
       d="m 126.228,62.612507 a 6.3499999,6.3499999 0 0 1 -6.16924,6.347426 6.3499999,6.3499999 0 0 1 -6.52047,-5.986044 6.3499999,6.3499999 0 0 1 5.798,-6.688234 6.3499999,6.3499999 0 0 1 6.85058,5.605259" />
    <path
       style="fill:#ff0000;stroke:none;stroke-width:0.0533332"
       id="path3035-2"
       sodipodi:type="arc"
       sodipodi:cx="150.20599"
       sodipodi:cy="62.612507"
       sodipodi:rx="6.3499999"
       sodipodi:ry="6.3499999"
       sodipodi:start="0"
       sodipodi:end="6.1693026"
       sodipodi:open="true"
       sodipodi:arc-type="arc"
       d="m 156.55599,62.612507 a 6.3499999,6.3499999 0 0 1 -6.16923,6.347426 6.3499999,6.3499999 0 0 1 -6.52047,-5.986044 6.3499999,6.3499999 0 0 1 5.798,-6.688234 6.3499999,6.3499999 0 0 1 6.85057,5.605259" />
    <path
       style="fill:#ff0000;stroke:none;stroke-width:0.0533332"
       id="path3035-2-4"
       sodipodi:type="arc"
       sodipodi:cx="61.332821"
       sodipodi:cy="106.56351"
       sodipodi:rx="6.3499999"
       sodipodi:ry="6.3499999"
       sodipodi:start="0"
       sodipodi:end="6.1693026"
       sodipodi:open="true"
       sodipodi:arc-type="arc"
       d="m 67.682821,106.56351 a 6.3499999,6.3499999 0 0 1 -6.169236,6.34742 6.3499999,6.3499999 0 0 1 -6.520472,-5.98604 6.3499999,6.3499999 0 0 1 5.798001,-6.68823 6.3499999,6.3499999 0 0 1 6.850574,5.60525" />
    <text
       xml:space="preserve"
       style="font-size:10.5833px;line-height:1.25;font-family:'MS 33558';-inkscape-font-specification:'MS 33558, ';letter-spacing:0px;word-spacing:0px;fill:#00ff00;stroke-width:0.264583"
       x="92.456177"
       y="86.216423"
       id="text2370-9"><tspan
         sodipodi:role="line"
         id="tspan2368-0"
         x="92.456177"
         y="86.216423"
         style="font-style:normal;font-variant:normal;font-weight:normal;font-stretch:normal;font-size:4.23333px;font-family:sans-serif;-inkscape-font-specification:'sans-serif, Normal';font-variant-ligatures:normal;font-variant-caps:normal;font-variant-numeric:normal;font-variant-east-asian:normal;fill:#00ff00;stroke-width:0.264583">CHAN SEL</tspan></text>
    <path
       style="fill:#ff0000;stroke:none;stroke-width:0.0533332"
       id="path3035-2-4-1"
       sodipodi:type="arc"
       sodipodi:cx="144.9144"
       sodipodi:cy="106.56351"
       sodipodi:rx="6.3499999"
       sodipodi:ry="6.3499999"
       sodipodi:start="0"
       sodipodi:end="6.1693026"
       sodipodi:open="true"
       sodipodi:arc-type="arc"
       d="m 151.2644,106.56351 a 6.3499999,6.3499999 0 0 1 -6.16924,6.34742 6.3499999,6.3499999 0 0 1 -6.52047,-5.98604 6.3499999,6.3499999 0 0 1 5.798,-6.68823 6.3499999,6.3499999 0 0 1 6.85058,5.60525" />
    <text
       xml:space="preserve"
       style="font-size:10.5833px;line-height:1.25;font-family:'MS 33558';-inkscape-font-specification:'MS 33558, ';letter-spacing:0px;word-spacing:0px;fill:#00ff00;stroke-width:0.264583"
       x="50.498241"
       y="29.618511"
       id="text2370-6"><tspan
         sodipodi:role="line"
         id="tspan2368-09"
         x="50.498241"
         y="29.618511"
         style="font-style:normal;font-variant:normal;font-weight:normal;font-stretch:normal;font-size:4.23333px;font-family:sans-serif;-inkscape-font-specification:'sans-serif, Normal';font-variant-ligatures:normal;font-variant-caps:normal;font-variant-numeric:normal;font-variant-east-asian:normal;fill:#00ff00;stroke-width:0.264583">VOL</tspan></text>
    <text
       xml:space="preserve"
       style="font-size:4.2708px;line-height:1.25;font-family:'MS 33558';-inkscape-font-specification:'MS 33558, ';letter-spacing:0px;word-spacing:0px;fill:#00ff00;stroke-width:0.266925"
       x="75.65329"
       y="107.35904"
       id="text3164-67-2"
       transform="scale(0.99122616,1.0088515)"><tspan
         sodipodi:role="line"
         id="tspan3162-4-0"
         x="75.65329"
         y="107.35904"
         style="font-style:normal;font-variant:normal;font-weight:normal;font-stretch:normal;font-size:4.2708px;font-family:sans-serif;-inkscape-font-specification:'sans-serif, Normal';font-variant-ligatures:normal;font-variant-caps:normal;font-variant-numeric:normal;font-variant-east-asian:normal;fill:#00ff00;stroke-width:0.266925">MANUAL</tspan></text>
    <text
       xml:space="preserve"
       style="font-size:4.23333px;line-height:1.25;font-family:'MS 33558';-inkscape-font-specification:'MS 33558, ';letter-spacing:0px;word-spacing:0px;fill:#00ff00;stroke-width:0.264583"
       x="118.19635"
       y="104.72657"
       id="text3164-67-2-7"><tspan
         sodipodi:role="line"
         id="tspan3162-4-0-12"
         x="118.19635"
         y="104.72657"
         style="font-style:normal;font-variant:normal;font-weight:normal;font-stretch:normal;font-size:4.23333px;font-family:sans-serif;-inkscape-font-specification:'sans-serif, Normal';font-variant-ligatures:normal;font-variant-caps:normal;font-variant-numeric:normal;font-variant-east-asian:normal;fill:#00ff00;stroke-width:0.264583">BOTH</tspan></text>
    <text
       xml:space="preserve"
       style="font-size:4.23333px;line-height:1.25;font-family:'MS 33558';-inkscape-font-specification:'MS 33558, ';letter-spacing:0px;word-spacing:0px;fill:#00ff00;stroke-width:0.264583"
       x="75.166847"
       y="96.361031"
       id="text3164-67-2-9"><tspan
         id="tspan3162-4-0-4"
         x="75.166847"
         y="96.361031"
         style="font-style:normal;font-variant:normal;font-weight:normal;font-stretch:normal;font-size:4.23333px;font-family:sans-serif;-inkscape-font-specification:'sans-serif, Normal';font-variant-ligatures:normal;font-variant-caps:normal;font-variant-numeric:normal;font-variant-east-asian:normal;fill:#00ff00;stroke-width:0.264583"
         sodipodi:role="line">GUARD</tspan></text>
    <text
       xml:space="preserve"
       style="font-size:4.23333px;line-height:1.25;font-family:'MS 33558';-inkscape-font-specification:'MS 33558, ';letter-spacing:0px;word-spacing:0px;fill:#00ff00;stroke-width:0.264583"
       x="74.989525"
       y="121.74162"
       id="text3164-67-2-9-1-9"><tspan
         id="tspan3162-4-0-4-2-4"
         x="74.989525"
         y="121.74162"
         style="font-style:normal;font-variant:normal;font-weight:normal;font-stretch:normal;font-size:4.23333px;font-family:sans-serif;-inkscape-font-specification:'sans-serif, Normal';font-variant-ligatures:normal;font-variant-caps:normal;font-variant-numeric:normal;font-variant-east-asian:normal;fill:#00ff00;stroke-width:0.264583"
         sodipodi:role="line">PRESET</tspan></text>
    <text
       xml:space="preserve"
       style="font-size:4.23333px;line-height:1.25;font-family:'MS 33558';-inkscape-font-specification:'MS 33558, ';letter-spacing:0px;word-spacing:0px;white-space:pre;inline-size:0;fill:#00ff00;stroke-width:0.264583"
       x="130.50031"
       y="86.027122"
       id="text3164-67-2-9-1-96"
       transform="translate(-2.5545448,10.186459)"><tspan
         id="tspan3162-4-0-4-2-3"
         x="130.50031"
         y="86.027122"
         style="font-style:normal;font-variant:normal;font-weight:normal;font-stretch:normal;font-size:4.23333px;font-family:sans-serif;-inkscape-font-specification:'sans-serif, Normal';font-variant-ligatures:normal;font-variant-caps:normal;font-variant-numeric:normal;font-variant-east-asian:normal;fill:#00ff00;stroke-width:0.264583">ADF</tspan></text>
    <text
       xml:space="preserve"
       style="font-size:4.23333px;line-height:1.25;font-family:'MS 33558';-inkscape-font-specification:'MS 33558, ';letter-spacing:0px;word-spacing:0px;fill:#00ff00;stroke-width:0.264583"
       x="118.19666"
       y="113.62191"
       id="text3164-67-2-9-1-4"><tspan
         id="tspan3162-4-0-4-2-8"
         x="118.19666"
         y="113.62191"
         style="font-style:normal;font-variant:normal;font-weight:normal;font-stretch:normal;font-size:4.23333px;font-family:sans-serif;-inkscape-font-specification:'sans-serif, Normal';font-variant-ligatures:normal;font-variant-caps:normal;font-variant-numeric:normal;font-variant-east-asian:normal;fill:#00ff00;stroke-width:0.264583"
         sodipodi:role="line">MAIN</tspan></text>
    <path
       id="rect3342"
       style="fill:#00ff00;stroke:#000002;stroke-width:0.0568361"
       d="m 63.88991,29.283137 -0.129097,1.215795 h 8.628891 L 57.531039,51.843356 c -1.010931,1.501619 0.333665,0.64771 0.501488,0.970574 L 73.389962,30.752393 73.25936,30.498932 h 7.503555 l 0.129096,-1.215795 z"
       sodipodi:nodetypes="cccccccccc" />
    <rect
       style="fill:#00ff00;stroke:#000002;stroke-width:0.0120057"
       id="rect3342-3"
       width="18.45336"
       height="0.21947543"
       x="73.952278"
       y="122.47495" />
    <text
       xml:space="preserve"
       style="font-size:4.23333px;line-height:1.25;font-family:'MS 33558';-inkscape-font-specification:'MS 33558, ';letter-spacing:0px;word-spacing:0px;fill:#00ff00;stroke-width:0.264583"
       x="127.74142"
       y="121.24467"
       id="text3164-67-2-7-2"><tspan
         sodipodi:role="line"
         id="tspan3162-4-0-12-2"
         x="127.74142"
         y="121.24467"
         style="font-style:normal;font-variant:normal;font-weight:normal;font-stretch:normal;font-size:4.23333px;font-family:sans-serif;-inkscape-font-specification:'sans-serif, Normal';font-variant-ligatures:normal;font-variant-caps:normal;font-variant-numeric:normal;font-variant-east-asian:normal;fill:#00ff00;stroke-width:0.264583">OFF</tspan></text>
    <path
       id="rect1952"
       style="fill:none;stroke:#000000;stroke-width:0.268496;stroke-opacity:1"
       d="M 42.937023,8.5389031 V 21.442173 h -0.03086 c 0.0037,0.174217 -7.31e-4,0.348484 -0.01331,0.522435 -0.26422,3.71414 -4.11806,6.606281 -8.753251,6.568936 v 0.0052 l -5.946548,-0.03669 -1.525752,0.0021 5.34e-4,-0.01137 -1.233588,-0.0083 v 87.370166 l 1.234119,-0.008 -0.001,-0.0114 1.525752,0.002 5.946548,-0.0367 v 0.005 c 4.635398,-0.0376 8.489557,2.85463 8.753784,6.56894 0.01257,0.17396 0.01701,0.34822 0.01331,0.52244 h 0.03034 l 1.8e-4,35.90088 H 164.92111 l -0.0442,-35.90088 h 0.0309 c -0.004,-0.17404 3.9e-4,-0.34813 0.0128,-0.52192 0.26388,-3.7145 4.11813,-6.60702 8.75379,-6.56946 v -0.005 l 5.94654,0.0367 1.52575,-0.002 -5.2e-4,0.0114 1.23358,0.008 V 28.484452 l -1.23358,0.0083 5.2e-4,0.01137 -1.52575,-0.0021 -5.94654,0.03669 v -0.0052 c -4.63566,0.03756 -8.48991,-2.854951 -8.75379,-6.569453 -0.0123,-0.173784 -0.0167,-0.347879 -0.0128,-0.521918 h -0.0309 V 8.5389031 Z"
       sodipodi:nodetypes="ccccccccccccccccccccccccccccccccccccccccc" />
    <path
       style="fill:#ff0000;stroke:none;stroke-width:0.0533332"
       id="path3035-2-4-9-2"
       sodipodi:type="arc"
       sodipodi:cx="103.71665"
       sodipodi:cy="106.56382"
       sodipodi:rx="6.3499999"
       sodipodi:ry="6.3499999"
       sodipodi:start="0"
       sodipodi:end="6.1693026"
       sodipodi:open="true"
       sodipodi:arc-type="arc"
       d="m 110.06665,106.56382 a 6.3499999,6.3499999 0 0 1 -6.16923,6.34743 6.3499999,6.3499999 0 0 1 -6.520476,-5.98605 6.3499999,6.3499999 0 0 1 5.797996,-6.68823 6.3499999,6.3499999 0 0 1 6.85058,5.60526" />
    <rect
       style="fill:#f90000;fill-opacity:1;stroke:none;stroke-width:0.369781"
       id="rect6065"
       width="83.630219"
       height="16.630219"
       x="62.003815"
       y="11.203818" />
    <path
       id="rect3342-9"
       style="fill:#00ff00;stroke:#000002;stroke-width:0.0460319"
       d="m 86.321226,29.260885 -0.249983,1.242167 5.783846,-0.04904 -4.883507,22.166104 0.818186,-0.0346 2.083352,-8.404776 3.078017,-13.702197 6.829422,0.02452 0.249981,-1.242167 z"
       sodipodi:nodetypes="cccccccccc" />
    <path
       id="rect3342-4"
       style="fill:#00ff00;stroke:#000002;stroke-width:0.0430372"
       d="m 130.28322,29.381796 v 1.276312 h 5.7878 l 10.73271,22.584132 1.0207,0.03221 -10.58701,-22.616341 h 4.70983 v -1.276312 z"
       sodipodi:nodetypes="ccccccccc" />
    <path
       id="rect3342-9-5"
       style="fill:#00ff00;stroke:#000002;stroke-width:0.0380361"
       d="m 106.49982,29.387568 0.31081,1.226073 h 6.417 l 5.25374,21.878932 0.86355,0.01372 -5.25722,-21.89263 h 4.3566 l -0.32921,-1.298655 z"
       sodipodi:nodetypes="ccccccccc" />
    <text
       xml:space="preserve"
       style="font-size:10.5833px;line-height:1.25;font-family:'MS 33558';-inkscape-font-specification:'MS 33558, ';letter-spacing:0px;word-spacing:0px;fill:#00ff00;stroke-width:0.264583"
       x="148.49789"
       y="29.563114"
       id="text2370-6-5"><tspan
         sodipodi:role="line"
         id="tspan2368-09-8"
         x="148.49789"
         y="29.563114"
         style="font-style:normal;font-variant:normal;font-weight:normal;font-stretch:normal;font-size:4.23333px;font-family:sans-serif;-inkscape-font-specification:'sans-serif, Normal';font-variant-ligatures:normal;font-variant-caps:normal;font-variant-numeric:normal;font-variant-east-asian:normal;fill:#00ff00;stroke-width:0.264583">BRT</tspan></text>
    <rect
       style="fill:#00ff00;stroke:#000002;stroke-width:0.00414361"
       id="rect3342-3-5"
       width="2.1971166"
       height="0.21958071"
       x="122.43723"
       y="-82.842934"
       transform="matrix(-0.00388141,0.99999247,-0.9999931,-0.00371528,0,0)" />
    <rect
       style="fill:#00ff00;stroke:#000002;stroke-width:0.0180769"
       id="rect3342-3-5-1"
       width="41.712612"
       height="0.22012477"
       x="74.939705"
       y="-117.83855"
       transform="matrix(-2.044444e-4,0.99999998,-0.99752157,-0.07036139,0,0)" />
    <rect
       style="fill:#00ff00;stroke:#000002;stroke-width:0.0163394"
       id="rect3342-3-80"
       width="35.122433"
       height="0.21358708"
       x="82.418198"
       y="124.94341" />
    <rect
       style="fill:#00ff00;stroke:#000002;stroke-width:0.0120057"
       id="rect3342-3-9"
       width="18.45336"
       height="0.21947543"
       x="94.025352"
       y="87.217064" />
    <rect
       style="fill:#00ff00;stroke:#000002;stroke-width:0.00414361"
       id="rect3342-3-5-0"
       width="2.1971166"
       height="0.21958071"
       x="87.103088"
       y="-103.30827"
       transform="matrix(-0.00388141,0.99999247,-0.9999931,-0.00371528,0,0)" />
    <rect
       style="fill:#00ff00;stroke:#000002;stroke-width:0.0115654"
       id="rect3342-3-9-0"
       width="14.657269"
       height="0.25642085"
       x="102.74112"
       y="89.682381" />
    <rect
       style="fill:#00ff00;stroke:#000002;stroke-width:0.00527507"
       id="rect3342-3-9-0-2"
       width="3.4564917"
       height="0.22620609"
       x="117.5312"
       y="83.230988" />
    <text
       xml:space="preserve"
       style="font-size:10.5833px;line-height:1.25;font-family:'MS 33558';-inkscape-font-specification:'MS 33558, ';letter-spacing:0px;word-spacing:0px;fill:#00ff00;stroke-width:0.264583"
       x="122.72713"
       y="75.628754"
       id="text2370-6-7"><tspan
         sodipodi:role="line"
         id="tspan2368-09-2"
         x="122.72713"
         y="75.628754"
         style="font-style:normal;font-variant:normal;font-weight:normal;font-stretch:normal;font-size:4.23333px;font-family:sans-serif;-inkscape-font-specification:'sans-serif, Normal';font-variant-ligatures:normal;font-variant-caps:normal;font-variant-numeric:normal;font-variant-east-asian:normal;fill:#00ff00;stroke-width:0.264583">LOAD</tspan></text>
    <text
       xml:space="preserve"
       style="font-size:10.5833px;line-height:1.25;font-family:'MS 33558';-inkscape-font-specification:'MS 33558, ';letter-spacing:0px;word-spacing:0px;fill:#00ff00;stroke-width:0.264583"
       x="70.044807"
       y="75.628922"
       id="text2370-6-6"><tspan
         sodipodi:role="line"
         id="tspan2368-09-83"
         x="70.044807"
         y="75.628922"
         style="font-style:normal;font-variant:normal;font-weight:normal;font-stretch:normal;font-size:4.23333px;font-family:sans-serif;-inkscape-font-specification:'sans-serif, Normal';font-variant-ligatures:normal;font-variant-caps:normal;font-variant-numeric:normal;font-variant-east-asian:normal;fill:#00ff00;stroke-width:0.264583">TONE</tspan></text>
    <text
       xml:space="preserve"
       style="font-size:4.23333px;line-height:1.25;font-family:'MS 33558';-inkscape-font-specification:'MS 33558, ';letter-spacing:0px;word-spacing:0px;fill:#00ff00;stroke-width:0.264583"
       x="29.645414"
       y="60.472092"
       id="text3164-67-2-9-6"><tspan
         id="tspan3162-4-0-4-4"
         x="29.645414"
         y="60.472092"
         style="font-style:normal;font-variant:normal;font-weight:normal;font-stretch:normal;font-size:10.5833px;font-family:sans-serif;-inkscape-font-specification:'sans-serif, Normal';font-variant-ligatures:normal;font-variant-caps:normal;font-variant-numeric:normal;font-variant-east-asian:normal;fill:#00ff00;stroke-width:0.264583"
         sodipodi:role="line">U</tspan><tspan
         x="29.645414"
         y="73.701218"
         style="font-style:normal;font-variant:normal;font-weight:normal;font-stretch:normal;font-size:10.5833px;font-family:sans-serif;-inkscape-font-specification:'sans-serif, Normal';font-variant-ligatures:normal;font-variant-caps:normal;font-variant-numeric:normal;font-variant-east-asian:normal;fill:#00ff00;stroke-width:0.264583"
         sodipodi:role="line"
         id="tspan7405">H</tspan><tspan
         x="29.645414"
         y="86.930344"
         style="font-style:normal;font-variant:normal;font-weight:normal;font-stretch:normal;font-size:10.5833px;font-family:sans-serif;-inkscape-font-specification:'sans-serif, Normal';font-variant-ligatures:normal;font-variant-caps:normal;font-variant-numeric:normal;font-variant-east-asian:normal;fill:#00ff00;stroke-width:0.264583"
         sodipodi:role="line"
         id="tspan7409">F</tspan></text>
    <rect
       style="fill:none;stroke-width:0.264583"
       id="rect318"
       width="94.329193"
       height="17.96051"
       x="48.624802"
       y="131.71042" />
    <path
       style="fill:#ff0000;stroke:none;stroke-width:0.041155"
       id="path3035-7"
       sodipodi:type="arc"
       sodipodi:cx="54.126019"
       sodipodi:cy="37.359852"
       sodipodi:rx="4.9000001"
       sodipodi:ry="4.9000001"
       sodipodi:start="0"
       sodipodi:end="6.1693026"
       sodipodi:open="true"
       sodipodi:arc-type="arc"
       d="m 59.026019,37.359852 a 4.9000001,4.9000001 0 0 1 -4.760513,4.898014 4.9000001,4.9000001 0 0 1 -5.031546,-4.619152 4.9000001,4.9000001 0 0 1 4.474048,-5.161 4.9000001,4.9000001 0 0 1 5.28627,4.325318"
       inkscape:transform-center-x="3.3040651" />
    <path
       style="fill:#ff0000;stroke:none;stroke-width:0.041155"
       id="path3035-7-2"
       sodipodi:type="arc"
       sodipodi:cx="152.39999"
       sodipodi:cy="37.360001"
       sodipodi:rx="4.9000001"
       sodipodi:ry="4.9000001"
       sodipodi:start="0"
       sodipodi:end="6.1693026"
       sodipodi:open="true"
       sodipodi:arc-type="arc"
       inkscape:transform-center-x="3.3040651"
       d="m 157.29999,37.360001 a 4.9000001,4.9000001 0 0 1 -4.76051,4.898014 4.9000001,4.9000001 0 0 1 -5.03154,-4.619153 4.9000001,4.9000001 0 0 1 4.47404,-5.160999 4.9000001,4.9000001 0 0 1 5.28627,4.325318" />
  </g>
</svg>
