<?xml version="1.0" encoding="UTF-8" standalone="no"?>
<svg
   xmlns:dc="http://purl.org/dc/elements/1.1/"
   xmlns:cc="http://creativecommons.org/ns#"
   xmlns:rdf="http://www.w3.org/1999/02/22-rdf-syntax-ns#"
   xmlns:svg="http://www.w3.org/2000/svg"
   xmlns="http://www.w3.org/2000/svg"
   xmlns:sodipodi="http://sodipodi.sourceforge.net/DTD/sodipodi-0.dtd"
   xmlns:inkscape="http://www.inkscape.org/namespaces/inkscape"
   width="8.5in"
   height="11in"
   viewBox="0 0 215.9 279.4"
   version="1.1"
   id="svg1685"
   inkscape:version="1.0.2-2 (e86c870879, 2021-01-15)"
   sodipodi:docname="UHFOLR.svg">
  <defs
     id="defs1679" />
  <sodipodi:namedview
     id="base"
     pagecolor="#ffffff"
     bordercolor="#666666"
     borderopacity="1.0"
     inkscape:pageopacity="0.0"
     inkscape:pageshadow="2"
     inkscape:zoom="1.8119611"
     inkscape:cx="564.42178"
     inkscape:cy="482.39384"
     inkscape:document-units="mm"
     inkscape:current-layer="layer1"
     inkscape:document-rotation="0"
     showgrid="false"
     inkscape:window-width="3840"
     inkscape:window-height="2131"
     inkscape:window-x="-9"
     inkscape:window-y="-9"
     inkscape:window-maximized="1"
     units="in" />
  <metadata
     id="metadata1682">
    <rdf:RDF>
      <cc:Work
         rdf:about="">
        <dc:format>image/svg+xml</dc:format>
        <dc:type
           rdf:resource="http://purl.org/dc/dcmitype/StillImage" />
        <dc:title />
      </cc:Work>
    </rdf:RDF>
  </metadata>
  <g
     inkscape:label="Layer 1"
     inkscape:groupmode="layer"
     id="layer1">
    <path
       style="fill:#ff0000;stroke:none;stroke-width:0.0503936"
       id="path3035-2-4-9"
       sodipodi:type="arc"
       sodipodi:cx="86.137001"
       sodipodi:cy="62.262508"
       sodipodi:rx="6"
       sodipodi:ry="6"
       sodipodi:start="0"
       sodipodi:end="6.1693026"
       sodipodi:open="true"
       sodipodi:arc-type="arc"
       d="m 92.137001,62.262508 a 6,6 0 0 1 -5.829199,5.997569 6,6 0 0 1 -6.161077,-5.656105 6,6 0 0 1 5.478427,-6.319591 6,6 0 0 1 6.472983,5.296307" />
    <path
       style="fill:#ff0000;stroke:none;stroke-width:0.0503938"
       id="path3035"
       sodipodi:type="arc"
       sodipodi:cx="55.780708"
       sodipodi:cy="62.262211"
       sodipodi:rx="6"
       sodipodi:ry="6"
       sodipodi:start="0"
       sodipodi:end="6.1693026"
       sodipodi:open="true"
       sodipodi:arc-type="arc"
       d="m 61.780708,62.262211 a 6,6 0 0 1 -5.829199,5.997568 6,6 0 0 1 -6.161076,-5.656105 6,6 0 0 1 5.478426,-6.319591 6,6 0 0 1 6.472984,5.296308" />
    <path
       style="fill:#ff0000;stroke:none;stroke-width:0.0503936"
       id="path3035-1"
       sodipodi:type="arc"
       sodipodi:cx="119.528"
       sodipodi:cy="62.262508"
       sodipodi:rx="6"
       sodipodi:ry="6"
       sodipodi:start="0"
       sodipodi:end="6.1693026"
       sodipodi:open="true"
       sodipodi:arc-type="arc"
       d="m 125.528,62.262508 a 6,6 0 0 1 -5.8292,5.997569 6,6 0 0 1 -6.16108,-5.656105 6,6 0 0 1 5.47843,-6.319591 6,6 0 0 1 6.47298,5.296307" />
    <path
       style="fill:#ff0000;stroke:none;stroke-width:0.0503936"
       id="path3035-2"
       sodipodi:type="arc"
       sodipodi:cx="149.85599"
       sodipodi:cy="62.262508"
       sodipodi:rx="6"
       sodipodi:ry="6"
       sodipodi:start="0"
       sodipodi:end="6.1693026"
       sodipodi:open="true"
       sodipodi:arc-type="arc"
       d="m 155.85599,62.262508 a 6,6 0 0 1 -5.8292,5.997569 6,6 0 0 1 -6.16108,-5.656105 6,6 0 0 1 5.47843,-6.319591 6,6 0 0 1 6.47298,5.296307" />
    <path
       style="fill:#ff0000;stroke:none;stroke-width:0.0503936"
       id="path3035-2-4"
       sodipodi:type="arc"
       sodipodi:cx="59.924488"
       sodipodi:cy="106.21351"
       sodipodi:rx="6"
       sodipodi:ry="6"
       sodipodi:start="0"
       sodipodi:end="6.1693026"
       sodipodi:open="true"
       sodipodi:arc-type="arc"
       d="m 65.924488,106.21351 a 6,6 0 0 1 -5.829199,5.99757 6,6 0 0 1 -6.161077,-5.65611 6,6 0 0 1 5.478427,-6.31959 6,6 0 0 1 6.472983,5.29631" />
    <text
       xml:space="preserve"
       style="font-size:10.5833px;line-height:1.25;font-family:'MS 33558';-inkscape-font-specification:'MS 33558, ';letter-spacing:0px;word-spacing:0px;fill:#00ff00;stroke-width:0.264583"
       x="92.456177"
       y="86.216423"
       id="text2370-9"><tspan
         sodipodi:role="line"
         id="tspan2368-0"
         x="92.456177"
         y="86.216423"
         style="font-style:normal;font-variant:normal;font-weight:normal;font-stretch:normal;font-size:4.23333px;font-family:sans-serif;-inkscape-font-specification:'sans-serif, Normal';font-variant-ligatures:normal;font-variant-caps:normal;font-variant-numeric:normal;font-variant-east-asian:normal;fill:#00ff00;stroke-width:0.264583">CHAN SEL</tspan></text>
    <path
       style="fill:#ff0000;stroke:none;stroke-width:0.0503936"
       id="path3035-2-4-1"
       sodipodi:type="arc"
       sodipodi:cx="144.56439"
       sodipodi:cy="106.21351"
       sodipodi:rx="6"
       sodipodi:ry="6"
       sodipodi:start="0"
       sodipodi:end="6.1693026"
       sodipodi:open="true"
       sodipodi:arc-type="arc"
       d="m 150.56439,106.21351 a 6,6 0 0 1 -5.8292,5.99757 6,6 0 0 1 -6.16107,-5.65611 6,6 0 0 1 5.47842,-6.31959 6,6 0 0 1 6.47299,5.29631" />
    <text
       xml:space="preserve"
       style="font-size:10.5833px;line-height:1.25;font-family:'MS 33558';-inkscape-font-specification:'MS 33558, ';letter-spacing:0px;word-spacing:0px;fill:#00ff00;stroke-width:0.264583"
       x="51.027409"
       y="33.851849"
       id="text2370-6"><tspan
         sodipodi:role="line"
         id="tspan2368-09"
         x="51.027409"
         y="33.851849"
         style="font-style:normal;font-variant:normal;font-weight:normal;font-stretch:normal;font-size:4.23333px;font-family:sans-serif;-inkscape-font-specification:'sans-serif, Normal';font-variant-ligatures:normal;font-variant-caps:normal;font-variant-numeric:normal;font-variant-east-asian:normal;fill:#00ff00;stroke-width:0.264583">VOL</tspan></text>
    <text
       xml:space="preserve"
       style="font-size:4.2708px;line-height:1.25;font-family:'MS 33558';-inkscape-font-specification:'MS 33558, ';letter-spacing:0px;word-spacing:0px;fill:#00ff00;stroke-width:0.266925"
       x="75.65329"
       y="107.35904"
       id="text3164-67-2"
       transform="scale(0.99122616,1.0088515)"><tspan
         sodipodi:role="line"
         id="tspan3162-4-0"
         x="75.65329"
         y="107.35904"
         style="font-style:normal;font-variant:normal;font-weight:normal;font-stretch:normal;font-size:4.2708px;font-family:sans-serif;-inkscape-font-specification:'sans-serif, Normal';font-variant-ligatures:normal;font-variant-caps:normal;font-variant-numeric:normal;font-variant-east-asian:normal;fill:#00ff00;stroke-width:0.266925">MANUAL</tspan></text>
    <text
       xml:space="preserve"
       style="font-size:4.23333px;line-height:1.25;font-family:'MS 33558';-inkscape-font-specification:'MS 33558, ';letter-spacing:0px;word-spacing:0px;fill:#00ff00;stroke-width:0.264583"
       x="119.25549"
       y="105.7849"
       id="text3164-67-2-7"><tspan
         sodipodi:role="line"
         id="tspan3162-4-0-12"
         x="119.25549"
         y="105.7849"
         style="font-style:normal;font-variant:normal;font-weight:normal;font-stretch:normal;font-size:4.23333px;font-family:sans-serif;-inkscape-font-specification:'sans-serif, Normal';font-variant-ligatures:normal;font-variant-caps:normal;font-variant-numeric:normal;font-variant-east-asian:normal;fill:#00ff00;stroke-width:0.264583">BOTH</tspan></text>
    <text
       xml:space="preserve"
       style="font-size:4.23333px;line-height:1.25;font-family:'MS 33558';-inkscape-font-specification:'MS 33558, ';letter-spacing:0px;word-spacing:0px;fill:#00ff00;stroke-width:0.264583"
       x="75.166847"
       y="96.361031"
       id="text3164-67-2-9"><tspan
         id="tspan3162-4-0-4"
         x="75.166847"
         y="96.361031"
         style="font-style:normal;font-variant:normal;font-weight:normal;font-stretch:normal;font-size:4.23333px;font-family:sans-serif;-inkscape-font-specification:'sans-serif, Normal';font-variant-ligatures:normal;font-variant-caps:normal;font-variant-numeric:normal;font-variant-east-asian:normal;fill:#00ff00;stroke-width:0.264583"
         sodipodi:role="line">GUARD</tspan></text>
    <text
       xml:space="preserve"
       style="font-size:4.23333px;line-height:1.25;font-family:'MS 33558';-inkscape-font-specification:'MS 33558, ';letter-spacing:0px;word-spacing:0px;fill:#00ff00;stroke-width:0.264583"
       x="74.989525"
       y="121.74162"
       id="text3164-67-2-9-1-9"><tspan
         id="tspan3162-4-0-4-2-4"
         x="74.989525"
         y="121.74162"
         style="font-style:normal;font-variant:normal;font-weight:normal;font-stretch:normal;font-size:4.23333px;font-family:sans-serif;-inkscape-font-specification:'sans-serif, Normal';font-variant-ligatures:normal;font-variant-caps:normal;font-variant-numeric:normal;font-variant-east-asian:normal;fill:#00ff00;stroke-width:0.264583"
         sodipodi:role="line">PRESET</tspan></text>
    <text
       xml:space="preserve"
       style="font-size:4.23333px;line-height:1.25;font-family:'MS 33558';-inkscape-font-specification:'MS 33558, ';letter-spacing:0px;word-spacing:0px;white-space:pre;inline-size:0;fill:#00ff00;stroke-width:0.264583"
       x="130.50031"
       y="86.027122"
       id="text3164-67-2-9-1-96"
       transform="translate(3.7041666,5.9531253)"><tspan
         id="tspan3162-4-0-4-2-3"
         x="130.50031"
         y="86.027122"
         style="font-style:normal;font-variant:normal;font-weight:normal;font-stretch:normal;font-size:4.23333px;font-family:sans-serif;-inkscape-font-specification:'sans-serif, Normal';font-variant-ligatures:normal;font-variant-caps:normal;font-variant-numeric:normal;font-variant-east-asian:normal;fill:#00ff00;stroke-width:0.264583">ADF</tspan></text>
    <text
       xml:space="preserve"
       style="font-size:4.23333px;line-height:1.25;font-family:'MS 33558';-inkscape-font-specification:'MS 33558, ';letter-spacing:0px;word-spacing:0px;fill:#00ff00;stroke-width:0.264583"
       x="119.78419"
       y="116.26775"
       id="text3164-67-2-9-1-4"><tspan
         id="tspan3162-4-0-4-2-8"
         x="119.78419"
         y="116.26775"
         style="font-style:normal;font-variant:normal;font-weight:normal;font-stretch:normal;font-size:4.23333px;font-family:sans-serif;-inkscape-font-specification:'sans-serif, Normal';font-variant-ligatures:normal;font-variant-caps:normal;font-variant-numeric:normal;font-variant-east-asian:normal;fill:#00ff00;stroke-width:0.264583"
         sodipodi:role="line">MAIN</tspan></text>
    <path
       id="rect3342"
       style="fill:#00ff00;stroke:#000002;stroke-width:0.0568361"
       d="m 63.88991,29.283137 -0.129097,1.215795 h 8.628891 L 57.531039,51.843356 c -1.010931,1.501619 0.333665,0.64771 0.501488,0.970574 L 73.389962,30.752393 73.25936,30.498932 h 7.503555 l 0.129096,-1.215795 z"
       sodipodi:nodetypes="cccccccccc" />
    <rect
       style="fill:#00ff00;stroke:#000002;stroke-width:0.0120057"
       id="rect3342-3"
       width="18.45336"
       height="0.21947543"
       x="73.952278"
       y="122.47495" />
    <path
       style="fill:#ff0000;stroke:none;stroke-width:0.0553847"
       id="path3377"
       sodipodi:type="arc"
       sodipodi:cx="149.8089"
       sodipodi:cy="18.04594"
       sodipodi:rx="3.175"
       sodipodi:ry="3.175"
       sodipodi:start="0"
       sodipodi:end="6.1693026"
       sodipodi:open="true"
       sodipodi:arc-type="arc"
       d="m 152.9839,18.04594 a 3.175,3.175 0 0 1 -3.08462,3.173714 3.175,3.175 0 0 1 -3.26024,-2.993022 3.175,3.175 0 0 1 2.89901,-3.344117 3.175,3.175 0 0 1 3.42528,2.802629" />
    <path
       style="fill:#ff0000;stroke:none;stroke-width:0.0553846"
       id="path3377-5"
       sodipodi:type="arc"
       sodipodi:cx="56.675449"
       sodipodi:cy="18.04594"
       sodipodi:rx="3.175"
       sodipodi:ry="3.175"
       sodipodi:start="0"
       sodipodi:end="6.1693026"
       sodipodi:open="true"
       sodipodi:arc-type="arc"
       d="m 59.850449,18.04594 a 3.175,3.175 0 0 1 -3.084617,3.173714 3.175,3.175 0 0 1 -3.260237,-2.993022 3.175,3.175 0 0 1 2.899001,-3.344117 3.175,3.175 0 0 1 3.425287,2.802629" />
    <path
       style="fill:#ff0000;stroke:none;stroke-width:0.0553846"
       id="path3377-7"
       sodipodi:type="arc"
       sodipodi:cx="47.731091"
       sodipodi:cy="154.15306"
       sodipodi:rx="3.175"
       sodipodi:ry="3.175"
       sodipodi:start="0"
       sodipodi:end="6.1693026"
       sodipodi:open="true"
       sodipodi:arc-type="arc"
       d="m 50.90609,154.15306 a 3.175,3.175 0 0 1 -3.084617,3.17371 3.175,3.175 0 0 1 -3.260237,-2.99302 3.175,3.175 0 0 1 2.899001,-3.34411 3.175,3.175 0 0 1 3.425287,2.80262" />
    <text
       xml:space="preserve"
       style="font-size:4.23333px;line-height:1.25;font-family:'MS 33558';-inkscape-font-specification:'MS 33558, ';letter-spacing:0px;word-spacing:0px;fill:#00ff00;stroke-width:0.264583"
       x="134.00012"
       y="125.38816"
       id="text3164-67-2-7-2"><tspan
         sodipodi:role="line"
         id="tspan3162-4-0-12-2"
         x="134.00012"
         y="125.38816"
         style="font-style:normal;font-variant:normal;font-weight:normal;font-stretch:normal;font-size:4.23333px;font-family:sans-serif;-inkscape-font-specification:'sans-serif, Normal';font-variant-ligatures:normal;font-variant-caps:normal;font-variant-numeric:normal;font-variant-east-asian:normal;fill:#00ff00;stroke-width:0.264583">OFF</tspan></text>
    <path
       id="rect1952"
       style="fill:none;stroke:#000000;stroke-width:0.264583;stroke-opacity:1"
       d="M 43.826783,8.5369465 V 21.440552 h -0.02997 c 0.0036,0.174222 -7.1e-4,0.348494 -0.01292,0.522449 -0.256567,3.714237 -3.998793,6.606453 -8.49974,6.569107 v 0.0052 l -5.774325,-0.03669 -1.481563,0.0021 5.18e-4,-0.01137 -1.197861,-0.0083 v 87.372442 l 1.198377,-0.008 -0.001,-0.0114 1.481563,0.002 5.774325,-0.0367 v 0.005 c 4.501148,-0.0376 8.243684,2.8547 8.500258,6.56911 0.01221,0.17396 0.01652,0.34823 0.01292,0.52245 h 0.02946 l 1.75e-4,35.90182 118.451,0 -0.0429,-35.90182 h 0.03 c -0.004,-0.17404 3.8e-4,-0.34814 0.0124,-0.52193 0.25623,-3.7146 3.99886,-6.60719 8.50026,-6.56963 v -0.005 l 5.77432,0.0367 1.48156,-0.002 -5.1e-4,0.0114 1.19786,0.008 V 28.483015 l -1.19786,0.0083 5.1e-4,0.01137 -1.48156,-0.0021 -5.77432,0.03669 v -0.0052 c -4.5014,0.03756 -8.24403,-2.855025 -8.50026,-6.569624 -0.012,-0.173788 -0.0162,-0.347888 -0.0124,-0.521932 h -0.03 V 8.5369465 Z"
       sodipodi:nodetypes="ccccccccccccccccccccccccccccccccccccccccc" />
    <path
       style="fill:#ff0000;stroke:none;stroke-width:0.0503936"
       id="path3035-2-4-9-2"
       sodipodi:type="arc"
       sodipodi:cx="103.36665"
       sodipodi:cy="106.21382"
       sodipodi:rx="6"
       sodipodi:ry="6"
       sodipodi:start="0"
       sodipodi:end="6.1693026"
       sodipodi:open="true"
       sodipodi:arc-type="arc"
       d="m 109.36665,106.21382 a 6,6 0 0 1 -5.8292,5.99757 6,6 0 0 1 -6.161072,-5.65611 6,6 0 0 1 5.478422,-6.31959 6,6 0 0 1 6.47299,5.29631" />
    <rect
       style="fill:#f90000;fill-opacity:1;stroke:none;stroke-width:0.369781"
       id="rect6065"
       width="83.630219"
       height="16.630219"
       x="62.003815"
       y="11.203818" />
    <path
       id="rect3342-9"
       style="fill:#00ff00;stroke:#000002;stroke-width:0.0460319"
       d="m 86.321226,29.260885 -0.249983,1.242167 5.783846,-0.04904 -4.883507,22.166104 0.818186,-0.0346 2.083352,-8.404776 3.078017,-13.702197 6.829422,0.02452 0.249981,-1.242167 z"
       sodipodi:nodetypes="cccccccccc" />
    <path
       id="rect3342-4"
       style="fill:#00ff00;stroke:#000002;stroke-width:0.0430372"
       d="m 130.28322,29.381796 v 1.276312 h 5.7878 l 10.73271,22.584132 1.0207,0.03221 -10.58701,-22.616341 h 4.70983 v -1.276312 z"
       sodipodi:nodetypes="ccccccccc" />
    <path
       id="rect3342-9-5"
       style="fill:#00ff00;stroke:#000002;stroke-width:0.0380361"
       d="m 106.49982,29.387568 0.31081,1.226073 h 6.417 l 5.25374,21.878932 0.86355,0.01372 -5.25722,-21.89263 h 4.3566 l -0.32921,-1.298655 z"
       sodipodi:nodetypes="ccccccccc" />
    <text
       xml:space="preserve"
       style="font-size:10.5833px;line-height:1.25;font-family:'MS 33558';-inkscape-font-specification:'MS 33558, ';letter-spacing:0px;word-spacing:0px;fill:#00ff00;stroke-width:0.264583"
       x="148.49789"
       y="33.796112"
       id="text2370-6-5"><tspan
         sodipodi:role="line"
         id="tspan2368-09-8"
         x="148.49789"
         y="33.796112"
         style="font-style:normal;font-variant:normal;font-weight:normal;font-stretch:normal;font-size:4.23333px;font-family:sans-serif;-inkscape-font-specification:'sans-serif, Normal';font-variant-ligatures:normal;font-variant-caps:normal;font-variant-numeric:normal;font-variant-east-asian:normal;fill:#00ff00;stroke-width:0.264583">BRT</tspan></text>
    <rect
       style="fill:#00ff00;stroke:#000002;stroke-width:0.00414361"
       id="rect3342-3-5"
       width="2.1971166"
       height="0.21958071"
       x="122.43723"
       y="-82.842934"
       transform="matrix(-0.00388141,0.99999247,-0.9999931,-0.00371528,0,0)" />
    <rect
       style="fill:#00ff00;stroke:#000002;stroke-width:0.0180769"
       id="rect3342-3-5-1"
       width="41.712612"
       height="0.22012477"
       x="74.939705"
       y="-117.83855"
       transform="matrix(-2.044444e-4,0.99999998,-0.99752157,-0.07036139,0,0)" />
    <rect
       style="fill:#00ff00;stroke:#000002;stroke-width:0.0163394"
       id="rect3342-3-80"
       width="35.122433"
       height="0.21358708"
       x="82.418198"
       y="124.94341" />
    <rect
       style="fill:#00ff00;stroke:#000002;stroke-width:0.0120057"
       id="rect3342-3-9"
       width="18.45336"
       height="0.21947543"
       x="94.025352"
       y="87.217064" />
    <rect
       style="fill:#00ff00;stroke:#000002;stroke-width:0.00414361"
       id="rect3342-3-5-0"
       width="2.1971166"
       height="0.21958071"
       x="87.103088"
       y="-103.30827"
       transform="matrix(-0.00388141,0.99999247,-0.9999931,-0.00371528,0,0)" />
    <rect
       style="fill:#00ff00;stroke:#000002;stroke-width:0.0115654"
       id="rect3342-3-9-0"
       width="14.657269"
       height="0.25642085"
       x="102.74112"
       y="89.682381" />
    <rect
       style="fill:#00ff00;stroke:#000002;stroke-width:0.00527507"
       id="rect3342-3-9-0-2"
       width="3.4564917"
       height="0.22620609"
       x="117.5312"
       y="83.230988" />
    <text
       xml:space="preserve"
       style="font-size:10.5833px;line-height:1.25;font-family:'MS 33558';-inkscape-font-specification:'MS 33558, ';letter-spacing:0px;word-spacing:0px;fill:#00ff00;stroke-width:0.264583"
       x="122.72713"
       y="82.507767"
       id="text2370-6-7"><tspan
         sodipodi:role="line"
         id="tspan2368-09-2"
         x="122.72713"
         y="82.507767"
         style="font-style:normal;font-variant:normal;font-weight:normal;font-stretch:normal;font-size:4.23333px;font-family:sans-serif;-inkscape-font-specification:'sans-serif, Normal';font-variant-ligatures:normal;font-variant-caps:normal;font-variant-numeric:normal;font-variant-east-asian:normal;fill:#00ff00;stroke-width:0.264583">LOAD</tspan></text>
    <text
       xml:space="preserve"
       style="font-size:10.5833px;line-height:1.25;font-family:'MS 33558';-inkscape-font-specification:'MS 33558, ';letter-spacing:0px;word-spacing:0px;fill:#00ff00;stroke-width:0.264583"
       x="70.044807"
       y="82.507797"
       id="text2370-6-6"><tspan
         sodipodi:role="line"
         id="tspan2368-09-83"
         x="70.044807"
         y="82.507797"
         style="font-style:normal;font-variant:normal;font-weight:normal;font-stretch:normal;font-size:4.23333px;font-family:sans-serif;-inkscape-font-specification:'sans-serif, Normal';font-variant-ligatures:normal;font-variant-caps:normal;font-variant-numeric:normal;font-variant-east-asian:normal;fill:#00ff00;stroke-width:0.264583">TONE</tspan></text>
    <rect
       style="fill:none;fill-opacity:1;stroke:#000000;stroke-width:0.24109;stroke-opacity:1"
       id="rect6911"
       width="19.758909"
       height="138.30484"
       x="-108.00152"
       y="-42.608452" />
    <rect
       style="fill:none;fill-opacity:1;stroke:#000000;stroke-width:0.268142;stroke-opacity:1"
       id="rect6921"
       width="15.731858"
       height="28.731857"
       x="-71.017372"
       y="0.47686064" />
    <circle
       style="fill:none;fill-opacity:1;stroke:#000000;stroke-width:0.298787;stroke-opacity:1"
       id="path6923"
       sodipodi:type="arc"
       sodipodi:cx="-59.149334"
       sodipodi:cy="62.795326"
       sodipodi:rx="13.350439"
       sodipodi:ry="13.35023"
       sodipodi:start="0"
       sodipodi:end="6.1693026"
       sodipodi:open="true"
       sodipodi:arc-type="arc"
       d="m -45.798895,62.795326 a 13.350439,13.35023 0 0 1 -12.970394,13.34482 13.350439,13.35023 0 0 1 -13.708847,-12.58505 13.350439,13.35023 0 0 1 12.1899,-14.061333 13.350439,13.35023 0 0 1 14.402862,11.784487" />
    <rect
       style="fill:none;fill-opacity:1;stroke:#000000;stroke-width:0.161691;stroke-opacity:1"
       id="rect6925"
       width="14.838308"
       height="14.838309"
       x="-50.411072"
       y="-24.728899" />
    <text
       xml:space="preserve"
       style="font-size:4.23333px;line-height:1.25;font-family:'MS 33558';-inkscape-font-specification:'MS 33558, ';letter-spacing:0px;word-spacing:0px;fill:#00ff00;stroke-width:0.264583"
       x="29.645414"
       y="60.472092"
       id="text3164-67-2-9-6"><tspan
         id="tspan3162-4-0-4-4"
         x="29.645414"
         y="60.472092"
         style="font-style:normal;font-variant:normal;font-weight:normal;font-stretch:normal;font-size:10.5833px;font-family:sans-serif;-inkscape-font-specification:'sans-serif, Normal';font-variant-ligatures:normal;font-variant-caps:normal;font-variant-numeric:normal;font-variant-east-asian:normal;fill:#00ff00;stroke-width:0.264583"
         sodipodi:role="line">U</tspan><tspan
         x="29.645414"
         y="73.701218"
         style="font-style:normal;font-variant:normal;font-weight:normal;font-stretch:normal;font-size:10.5833px;font-family:sans-serif;-inkscape-font-specification:'sans-serif, Normal';font-variant-ligatures:normal;font-variant-caps:normal;font-variant-numeric:normal;font-variant-east-asian:normal;fill:#00ff00;stroke-width:0.264583"
         sodipodi:role="line"
         id="tspan7405">H</tspan><tspan
         x="29.645414"
         y="86.930344"
         style="font-style:normal;font-variant:normal;font-weight:normal;font-stretch:normal;font-size:10.5833px;font-family:sans-serif;-inkscape-font-specification:'sans-serif, Normal';font-variant-ligatures:normal;font-variant-caps:normal;font-variant-numeric:normal;font-variant-east-asian:normal;fill:#00ff00;stroke-width:0.264583"
         sodipodi:role="line"
         id="tspan7409">F</tspan></text>
    <path
       style="fill:#ff0000;stroke:none;stroke-width:0.0553846"
       id="path3377-7-6"
       sodipodi:type="arc"
       sodipodi:cx="157.56261"
       sodipodi:cy="154.46504"
       sodipodi:rx="3.175"
       sodipodi:ry="3.175"
       sodipodi:start="0"
       sodipodi:end="6.1693026"
       sodipodi:open="true"
       sodipodi:arc-type="arc"
       d="m 160.73761,154.46504 a 3.175,3.175 0 0 1 -3.08462,3.17372 3.175,3.175 0 0 1 -3.26024,-2.99303 3.175,3.175 0 0 1 2.899,-3.34411 3.175,3.175 0 0 1 3.42529,2.80263" />
    <rect
       style="fill:none;stroke-width:0.264583"
       id="rect318"
       width="94.329193"
       height="17.96051"
       x="48.624802"
       y="131.71042" />
  </g>
</svg>
